<svg width="332" height="138" viewBox="0 0 332 138" fill="none" xmlns="http://www.w3.org/2000/svg">
<rect y="22.6016" width="324" height="115" rx="8" transform="rotate(-4 0 22.6016)" fill="#F68216"/>
<path d="M18.1394 59.7666L14.9363 59.9906L14.4997 53.748L15.6805 53.6655C16.8039 52.7646 17.0506 51.4199 17.0315 49.1305L16.9489 39.5504L28.908 38.7141L29.8841 52.6723L31.9883 52.5251L32.4248 58.7677L29.2334 58.9908L29.0004 55.6591L17.9064 56.4349L18.1394 59.7666ZM20.2993 49.1604C20.3032 51.0632 20.1484 52.378 19.4615 53.3071L19.4681 53.4006L26.3536 52.9191L25.5811 41.8719L20.2621 42.2438L20.2993 49.1604ZM33.3197 55.3571L38.032 38.0761L42.182 37.7859L49.2535 54.2429L45.536 54.5029L43.9873 50.4996L38.0136 50.9173L37.0372 55.0971L33.3197 55.3571ZM40.3067 41.2063L38.6472 48.2181L42.9726 47.9156L40.3768 41.2014L40.3067 41.2063ZM51.6077 54.231C51.0349 54.271 50.5616 54.2219 50.3229 54.1681L50.1071 51.0819C50.2732 51.1055 50.5921 51.1302 50.896 51.109C52.4625 50.9994 52.9054 49.6058 52.8566 47.06L52.662 37.0531L64.3522 36.2356L65.5318 53.1046L62.0014 53.3515L61.0253 39.3934L56.0219 39.7433L56.1229 47.0666C56.1948 51.455 54.9745 53.9956 51.6077 54.231ZM68.8107 52.8753L67.6311 36.0064L71.1615 35.7595L71.5572 41.4176L74.8305 41.1887C78.3843 40.9402 81.0087 43.0239 81.2417 46.3556L81.2433 46.379C81.4779 49.7341 79.2617 52.1445 75.7898 52.3873L68.8107 52.8753ZM74.2535 44.0249L71.7518 44.1998L72.1441 49.8111L74.6575 49.6354C76.6682 49.4948 77.7686 48.431 77.6427 46.6307L77.6411 46.6074C77.5144 44.7954 76.2642 43.8843 74.2535 44.0249ZM84.1539 51.8024L82.9743 34.9335L86.5047 34.6866L86.9837 41.5371L94.5824 41.0057L94.1033 34.1552L97.6338 33.9084L98.8134 50.7773L95.2829 51.0242L94.7859 43.9166L87.1873 44.4479L87.6843 51.5556L84.1539 51.8024ZM102.045 50.5513L100.866 33.6824L112.042 32.9009L112.245 35.8117L104.6 36.3464L104.883 40.3912L112.096 39.8868L112.288 42.6457L105.076 43.1501L105.372 47.3936L113.018 46.859L113.221 49.7698L102.045 50.5513ZM116.196 49.5618L115.017 32.6928L122.358 32.1795C125.538 31.9571 127.651 33.454 127.833 36.0492L127.834 36.0726C127.964 37.9196 126.659 39.5967 124.83 39.9714L124.834 40.0415C127.185 40.0534 129.008 41.594 129.162 43.8035L129.164 43.8269C129.371 46.7845 127.267 48.7877 123.666 49.0395L116.196 49.5618ZM121.629 34.8618L118.73 35.0646L119.04 39.4952L121.507 39.3227C123.482 39.1845 124.5 38.2793 124.398 36.818L124.396 36.7947C124.302 35.4503 123.278 34.7466 121.629 34.8618ZM122.083 41.6906L119.208 41.8917L119.543 46.6846L122.571 46.4729C124.593 46.3315 125.645 45.4238 125.536 43.8573L125.534 43.834C125.426 42.2909 124.246 41.5393 122.083 41.6906ZM139.556 48.222C134.553 48.5719 131.185 45.4359 130.81 40.0701L130.808 40.0467C130.433 34.6809 133.344 31.1176 138.335 30.7686C143.339 30.4187 146.706 33.5547 147.081 38.9088L147.082 38.9322C147.458 44.298 144.571 47.8713 139.556 48.222ZM139.347 45.2293C142.152 45.0331 143.726 42.6793 143.482 39.184L143.48 39.1606C143.234 35.6418 141.315 33.5675 138.545 33.7612C135.786 33.9542 134.162 36.2645 134.409 39.7949L134.41 39.8183C134.657 43.3487 136.576 45.4231 139.347 45.2293ZM157.88 46.9407C152.947 47.2856 149.618 44.2056 149.238 38.7697L149.237 38.758C148.857 33.3221 151.738 29.8314 156.66 29.4872C160.763 29.2003 163.878 31.5786 164.444 35.1338L164.463 35.2382L161.026 35.4785L160.965 35.283C160.438 33.4521 158.973 32.3328 156.869 32.4799C154.168 32.6687 152.602 34.9633 152.849 38.4937L152.85 38.5054C153.098 42.0592 154.982 44.136 157.683 43.9472C159.717 43.8049 161.061 42.5362 161.366 40.5061L161.381 40.3876L164.818 40.1472L164.815 40.2766C164.75 43.8876 161.972 46.6546 157.88 46.9407ZM171.169 45.7178L170.193 31.7597L165.306 32.1014L165.103 29.1905L178.394 28.261L178.598 31.1719L173.723 31.5128L174.699 45.4709L171.169 45.7178ZM188.578 44.7941C183.575 45.1439 180.207 42.0079 179.832 36.6421L179.83 36.6187C179.455 31.2529 182.366 27.6896 187.358 27.3406C192.361 26.9907 195.729 30.1267 196.103 35.4808L196.105 35.5042C196.48 40.87 193.593 44.4434 188.578 44.7941ZM188.369 41.8014C191.174 41.6052 192.748 39.2514 192.504 35.756L192.502 35.7326C192.256 32.2139 190.337 30.1395 187.567 30.3333C184.808 30.5262 183.184 32.8365 183.431 36.367L183.432 36.3903C183.679 39.9208 185.598 41.9951 188.369 41.8014ZM209.641 43.0275L209.161 36.1654L209.091 36.1703C208.623 36.532 207.316 37.3399 205.189 37.4887C201.039 37.7789 198.563 35.2971 198.31 31.6848L197.975 26.8918L201.505 26.645L201.824 31.2041C201.978 33.4019 203.308 34.6129 205.622 34.451C207.142 34.3447 208.28 33.8188 208.95 33.1493L208.461 26.1586L211.992 25.9117L213.171 42.7807L209.641 43.0275ZM17.8606 84.5065L16.681 67.6375L20.2114 67.3906L20.6904 74.2411L28.2891 73.7098L27.81 66.8593L31.3405 66.6124L32.5201 83.4814L28.9896 83.7283L28.4926 76.6206L20.894 77.152L21.391 84.2596L17.8606 84.5065ZM35.7756 83.2537L34.596 66.3848L38.1264 66.1379L38.5221 71.796L41.7953 71.5671C45.3491 71.3186 47.9735 73.4023 48.2065 76.734L48.2082 76.7574C48.4428 80.1125 46.2266 82.5229 42.7546 82.7657L35.7756 83.2537ZM50.5286 82.2221L49.349 65.3531L52.8795 65.1063L54.059 81.9752L50.5286 82.2221ZM41.2183 74.4033L38.7166 74.5782L39.109 80.1895L41.6224 80.0138C43.6331 79.8732 44.7335 78.8095 44.6076 77.0092L44.6059 76.9858C44.4792 75.1738 43.229 74.2627 41.2183 74.4033ZM63.3288 63.0951C60.6752 63.2807 58.9054 61.9948 58.7468 59.7269L58.7378 59.5983L61.2863 59.4201L61.2936 59.5253C61.3582 60.4488 62.0676 61.1863 63.1899 61.1078C64.2887 61.0309 64.912 60.2003 64.8474 59.2768L64.8401 59.1715L67.3885 58.9933L67.3975 59.1219C67.5561 61.3898 65.9825 62.9096 63.3288 63.0951ZM57.3145 81.7476L56.1349 64.8786L59.6537 64.6326L60.4278 75.7032L60.4629 75.7007L67.3458 64.0947L70.4321 63.8789L71.6117 80.7478L68.0929 80.9939L67.3147 69.8648L67.2796 69.8673L60.3774 81.5334L57.3145 81.7476ZM94.4889 79.1481L90.9585 79.395L89.9824 65.4369L82.4422 65.9641L83.4183 79.9222L79.8878 80.1691L78.7083 63.3001L93.3093 62.2791L94.4889 79.1481ZM97.7561 78.9196L96.5765 62.0507L103.345 61.5774C106.911 61.328 109.432 63.4542 109.675 66.9262L109.677 66.9496C109.919 70.4216 107.718 72.878 104.153 73.1273L100.915 73.3537L101.287 78.6728L97.7561 78.9196ZM102.687 64.431L100.302 64.5978L100.722 70.5948L103.106 70.4281C105.129 70.2867 106.234 69.1286 106.1 67.2114L106.099 67.188C105.965 65.2708 104.71 64.2896 102.687 64.431ZM120.578 77.6175C115.575 77.9673 112.207 74.8313 111.832 69.4655L111.83 69.4421C111.455 64.0763 114.366 60.513 119.358 60.164C124.361 59.8141 127.729 62.9501 128.103 68.3042L128.105 68.3276C128.48 73.6934 125.593 77.2668 120.578 77.6175ZM120.369 74.6248C123.174 74.4286 124.748 72.0748 124.504 68.5794L124.502 68.556C124.256 65.0373 122.337 62.9629 119.567 63.1567C116.808 63.3496 115.184 65.6599 115.431 69.1904L115.432 69.2137C115.679 72.7442 117.598 74.8185 120.369 74.6248ZM138.902 76.3361C133.969 76.6811 130.641 73.6011 130.26 68.1651L130.26 68.1534C129.879 62.7175 132.76 59.2268 137.682 58.8826C141.785 58.5957 144.9 60.9741 145.466 64.5292L145.485 64.6336L142.048 64.8739L141.987 64.6785C141.46 62.8475 139.995 61.7282 137.891 61.8753C135.191 62.0642 133.624 64.3587 133.871 67.8891L133.872 67.9008C134.12 71.4547 136.004 73.5314 138.705 73.3426C140.739 73.2004 142.083 71.9316 142.388 69.9015L142.403 69.783L145.84 69.5427L145.837 69.6721C145.772 73.283 142.994 76.05 138.902 76.3361ZM163.484 74.3235L159.953 74.5704L158.977 60.6123L151.437 61.1396L152.413 75.0977L148.882 75.3445L147.703 58.4756L162.304 57.4546L163.484 74.3235ZM166.751 74.0951L165.571 57.2261L176.747 56.4446L176.951 59.3555L169.305 59.8901L169.588 63.9349L176.801 63.4305L176.994 66.1894L169.781 66.6938L170.078 70.9373L177.723 70.4027L177.927 73.3136L166.751 74.0951ZM184.455 72.857L180.925 73.1039L179.745 56.235L183.276 55.9881L183.763 62.9554L184.347 62.9146L189.694 55.5393L193.68 55.2605L187.412 63.734L195.409 72.0911L191.025 72.3976L184.536 65.615L183.952 65.6559L184.455 72.857ZM200.816 71.713L199.839 57.7549L194.953 58.0966L194.749 55.1858L208.041 54.2563L208.245 57.1672L203.37 57.508L204.346 71.4662L200.816 71.713ZM209.461 74.6444L209.862 68.1201L213.089 67.8945L211.822 74.4793L209.461 74.6444ZM223.769 70.108L222.815 56.4772L222.745 56.4821L218.648 59.7055L218.429 56.5725L222.577 53.2398L226.084 52.9946L227.264 69.8636L223.769 70.108ZM231.291 69.582L231.122 67.1621L236.694 61.169C238.726 58.9828 239.124 58.1209 239.042 56.9519L239.04 56.9285C238.932 55.5499 237.812 54.6415 236.315 54.7461C234.585 54.8671 233.495 56.0828 233.555 57.6058L233.55 57.7119L230.277 57.9407L230.271 57.8472C230.048 54.6675 232.534 52.2499 236.1 52.0006C239.665 51.7513 242.262 53.6137 242.463 56.4895L242.465 56.5129C242.608 58.5586 241.731 59.9592 239.007 62.8398L235.703 66.3131L235.712 66.4534L243.358 65.9188L243.554 68.7245L231.291 69.582ZM252.476 68.3942C248.806 68.6509 246.224 66.6816 245.817 63.879L245.793 63.7045L249.055 63.4764L249.084 63.5566C249.418 64.8137 250.668 65.7131 252.293 65.5995C254.14 65.4703 255.349 64.117 255.223 62.3167L255.221 62.2934C255.085 60.5173 253.7 59.3571 251.877 59.4847C251.012 59.5452 250.293 59.8538 249.752 60.3498C249.431 60.6307 249.185 60.9768 249.011 61.3414L245.936 61.5564L246.016 51.6009L256.782 50.848L256.979 53.6536L249.017 54.2103L248.94 58.9852L249.01 58.9803C249.632 57.7973 250.975 57.0103 252.682 56.8909C255.885 56.6669 258.361 58.808 258.583 61.9878L258.585 62.0112C258.832 65.5416 256.334 68.1245 252.476 68.3942Z" fill="#18181A"/>
<g clip-path="url(#clip0_132_3461)">
<path d="M29.6337 102.339C25.4439 102.632 21.8778 106.109 22.2252 111.077C22.447 114.249 25.152 117.809 30.3307 121.767C30.7328 122.07 31.3014 122.03 31.6575 121.675C36.2249 117.035 38.4081 113.133 38.1862 109.961C37.8388 104.993 33.8235 102.046 29.6337 102.339ZM30.3313 112.314C29.234 112.391 28.2734 111.556 28.1966 110.459C28.1199 109.361 28.9549 108.401 30.0523 108.324C31.1496 108.247 32.1102 109.082 32.1869 110.18C32.2636 111.277 31.4286 112.238 30.3313 112.314Z" fill="#0C0C0D"/>
</g>
<path d="M49.8118 116.967L49.0254 105.721L53.5144 105.407C55.5095 105.267 56.9046 106.29 57.0234 107.989L57.0245 108.004C57.1073 109.189 56.2801 110.351 55.1075 110.605L55.1097 110.636C56.7188 110.688 57.8321 111.715 57.9357 113.195L57.9368 113.211C58.0747 115.183 56.7168 116.484 54.3242 116.651L49.8118 116.967ZM53.1933 106.862L50.8709 107.025L51.1063 110.392L53.0469 110.256C54.5822 110.149 55.3725 109.467 55.2934 108.337L55.2924 108.321C55.2204 107.292 54.4558 106.774 53.1933 106.862ZM53.4918 111.58L51.2006 111.74L51.4578 115.418L53.8738 115.249C55.4325 115.14 56.23 114.45 56.1461 113.25L56.145 113.235C56.0605 112.027 55.1596 111.463 53.4918 111.58ZM59.6004 116.282L59.0271 108.083L60.7105 107.966L60.8876 110.499L62.4463 110.39C64.3401 110.257 65.6405 111.27 65.7609 112.993L65.762 113.008C65.883 114.739 64.7363 115.923 62.8425 116.055L59.6004 116.282ZM66.934 115.769L66.3607 107.571L68.0519 107.452L68.6252 115.651L66.934 115.769ZM62.3758 111.734L60.9808 111.831L61.1906 114.832L62.5856 114.734C63.5442 114.667 64.1029 114.033 64.0397 113.129L64.0386 113.113C63.9754 112.209 63.3266 111.667 62.3758 111.734ZM74.0921 115.433C71.528 115.613 70.0314 114.033 69.8058 110.807L69.8047 110.791C69.4875 106.256 70.6844 104.331 73.7858 103.997L74.5167 103.922C75.3562 103.832 76.1876 103.626 76.6316 103.367L76.7291 104.762C76.4716 105 75.6503 105.237 74.7094 105.334L73.9946 105.416C71.8491 105.644 71.2141 106.644 71.051 108.903L71.0431 109.013L71.082 109.01C71.5439 107.999 72.5049 107.407 73.7986 107.317C76.012 107.162 77.5377 108.598 77.7051 110.991L77.7061 111.006C77.886 113.578 76.5081 115.264 74.0921 115.433ZM73.9779 114.024C75.3651 113.927 76.107 112.888 75.9854 111.15L75.9843 111.135C75.8693 109.49 74.994 108.619 73.6067 108.716C72.2117 108.814 71.466 109.798 71.581 111.442L71.5821 111.458C71.7036 113.196 72.575 114.122 73.9779 114.024ZM79.6333 117.622L78.8692 106.696L80.5526 106.578L80.6513 107.989L80.6902 107.986C81.1131 106.978 81.9757 106.322 83.1447 106.24C85.2334 106.094 86.6883 107.637 86.8714 110.256L86.872 110.264C87.0545 112.874 85.8213 114.613 83.7638 114.757C82.6026 114.838 81.6181 114.312 81.0684 113.395L81.0295 113.397L81.3167 117.505L79.6333 117.622ZM83.2026 113.34C84.5275 113.247 85.2784 112.114 85.1574 110.383L85.1569 110.376C85.0348 108.63 84.134 107.62 82.8091 107.713C81.531 107.802 80.7121 108.971 80.8315 110.678L80.832 110.686C80.9508 112.385 81.9323 113.428 83.2026 113.34ZM91.0262 114.233C89.3896 114.348 88.2204 113.419 88.1174 111.946L88.1163 111.931C88.0166 110.505 89.0622 109.554 90.9946 109.302L93.2221 109.013L93.179 108.397C93.1158 107.493 92.4853 106.989 91.441 107.062C90.4668 107.13 89.8989 107.632 89.8044 108.296L89.7937 108.368L88.2038 108.479L88.2056 108.393C88.2239 106.974 89.3717 105.805 91.3902 105.664C93.3932 105.524 94.7376 106.495 94.8526 108.139L95.2477 113.789L93.5643 113.907L93.4738 112.613L93.4349 112.616C93.0211 113.53 92.1173 114.157 91.0262 114.233ZM89.8136 111.789C89.8638 112.506 90.4877 112.916 91.3917 112.853C92.5763 112.77 93.4243 111.904 93.3496 110.837L93.3049 110.197L91.3029 110.463C90.2941 110.596 89.7641 111.079 89.8126 111.773L89.8136 111.789ZM102.561 105.039L102.655 106.38L100.091 106.559L100.571 113.417L98.8795 113.535L98.3999 106.677L95.8358 106.857L95.7421 105.516L102.561 105.039ZM104.366 113.152L103.793 104.953L105.476 104.835L105.653 107.368L107.212 107.259C109.106 107.127 110.406 108.14 110.527 109.863L110.528 109.878C110.649 111.608 109.502 112.793 107.608 112.925L104.366 113.152ZM107.141 108.603L105.746 108.701L105.956 111.701L107.351 111.604C108.31 111.537 108.869 110.903 108.805 109.999L108.804 109.983C108.741 109.079 108.092 108.537 107.141 108.603ZM120.748 112.006L120.499 108.445L116.805 108.703L117.054 112.265L115.37 112.382L114.797 104.184L116.481 104.066L116.712 107.37L120.406 107.112L120.175 103.808L121.858 103.69L122.431 111.889L120.748 112.006ZM126.658 111.742C125.021 111.856 123.852 110.928 123.749 109.455L123.748 109.439C123.648 108.013 124.694 107.063 126.626 106.81L128.854 106.521L128.811 105.906C128.748 105.002 128.117 104.497 127.073 104.57C126.099 104.639 125.531 105.14 125.436 105.805L125.425 105.876L123.836 105.987L123.837 105.901C123.856 104.482 125.003 103.313 127.022 103.172C129.025 103.032 130.369 104.003 130.484 105.648L130.879 111.298L129.196 111.416L129.106 110.122L129.067 110.125C128.653 111.038 127.749 111.666 126.658 111.742ZM125.445 109.297C125.496 110.014 126.119 110.425 127.023 110.361C128.208 110.279 129.056 109.413 128.981 108.345L128.937 107.706L126.935 107.971C125.926 108.104 125.396 108.588 125.444 109.281L125.445 109.297ZM137.622 107.153L137.326 107.174L137.582 110.829L135.898 110.947L135.325 102.748L137.009 102.63L137.245 106.013L137.541 105.992L140.274 102.402L142.261 102.263L139.078 106.355L142.975 110.452L140.894 110.598L137.622 107.153ZM146.282 110.37C144.645 110.484 143.476 109.556 143.373 108.083L143.372 108.067C143.272 106.641 144.318 105.691 146.25 105.438L148.478 105.149L148.435 104.533C148.371 103.629 147.741 103.125 146.697 103.198C145.723 103.266 145.155 103.768 145.06 104.433L145.049 104.504L143.46 104.615L143.461 104.529C143.48 103.11 144.627 101.941 146.646 101.8C148.649 101.66 149.993 102.631 150.108 104.275L150.503 109.926L148.82 110.043L148.73 108.75L148.691 108.752C148.277 109.666 147.373 110.293 146.282 110.37ZM145.069 107.925C145.119 108.642 145.743 109.052 146.647 108.989C147.832 108.906 148.68 108.04 148.605 106.973L148.561 106.334L146.559 106.599C145.55 106.732 145.02 107.216 145.068 107.909L145.069 107.925ZM152.471 112.529L151.707 101.603L153.39 101.485L153.489 102.896L153.528 102.893C153.951 101.884 154.813 101.229 155.983 101.147C158.071 101.001 159.526 102.544 159.709 105.162L159.71 105.17C159.892 107.781 158.659 109.52 156.602 109.664C155.44 109.745 154.456 109.218 153.906 108.301L153.867 108.304L154.154 112.411L152.471 112.529ZM156.04 108.246C157.365 108.154 158.116 107.02 157.995 105.29L157.995 105.282C157.873 103.537 156.972 102.527 155.647 102.619C154.369 102.709 153.55 103.878 153.669 105.585L153.67 105.593C153.789 107.292 154.77 108.335 156.04 108.246ZM166.826 100.545L166.92 101.886L164.356 102.065L164.836 108.923L163.144 109.042L162.665 102.183L160.101 102.363L160.007 101.022L166.826 100.545ZM171.986 108.588C169.578 108.756 168.005 107.214 167.824 104.626L167.824 104.619C167.645 102.054 169.005 100.236 171.304 100.076C173.604 99.9148 175.13 101.468 175.302 103.931L175.342 104.5L169.536 104.906C169.675 106.455 170.588 107.299 171.928 107.206C172.926 107.136 173.552 106.575 173.72 105.945L173.739 105.881L175.344 105.769L175.327 105.856C175.161 107.175 173.973 108.449 171.986 108.588ZM171.409 101.454C170.318 101.531 169.536 102.329 169.476 103.712L173.591 103.424C173.359 102.015 172.508 101.378 171.409 101.454Z" fill="#18181A"/>
<defs>
<clipPath id="clip0_132_3461">
<rect width="24" height="24" fill="white" transform="translate(17.5234 101.181) rotate(-4)"/>
</clipPath>
</defs>
</svg>
