<svg width="375" height="182" viewBox="0 0 375 182" fill="none" xmlns="http://www.w3.org/2000/svg">
<g clip-path="url(#clip0_878_13378)">
<rect x="16" width="167.5" height="182" rx="20" fill="#161616"/>
<g filter="url(#filter0_dd_878_13378)">
<circle cx="99.75" cy="49" r="37" fill="#161616" fill-opacity="0.8"/>
<path d="M84.151 64.5992L115.35 33.4009L112.949 31L104.706 39.2424C97.3495 46.5991 100.282 47.5988 93.0863 54.793L83.7154 64.1636L83.3575 63.8057L92.7284 54.4351C96.6871 50.0434 100.721 45.1688 93.5522 38.0001C90.2886 34.7366 86.5519 31 86.5519 31L81.75 35.8018L89.4381 43.4897C93.4612 47.5127 94.4633 49.4865 89.8349 54.1148L81.75 62.1983L84.151 64.5992Z" fill="#E1FF01"/>
<path d="M84.1484 64.5996L115.347 33.4014L117.748 35.8023L109.506 44.0446C102.149 51.4014 101.149 48.4691 93.9549 55.6645L84.584 65.0352L84.9419 65.3931L94.3128 56.0224C98.7046 52.0638 103.579 48.03 110.748 55.1987C114.012 58.4621 117.748 62.1987 117.748 62.1987L112.947 67.0005C112.947 67.0005 108.46 62.5142 105.258 59.3126C101.235 55.2897 99.2615 54.2876 94.633 58.9159L86.5494 66.9993L84.1484 64.5984V64.5996Z" fill="#E1FF01"/>
<path d="M84.151 64.5992L115.35 33.4009L112.949 31L104.706 39.2424C97.3495 46.5991 100.282 47.5988 93.0863 54.793L83.7154 64.1636L83.3575 63.8057L92.7284 54.4351C96.6871 50.0434 100.721 45.1688 93.5522 38.0001C90.2886 34.7366 86.5519 31 86.5519 31L81.75 35.8018L89.4381 43.4897C93.4612 47.5127 94.4633 49.4865 89.8349 54.1148L81.75 62.1983L84.151 64.5992Z" fill="#E1FF01"/>
</g>
<path d="M81.4688 114V102.727H85.9688C88.375 102.727 89.8438 104.062 89.8438 106.242V106.258C89.8438 107.773 89.0312 109 87.7188 109.477L90.1797 114H87.8828L85.6641 109.781H83.4844V114H81.4688ZM83.4844 108.188H85.7578C87.0312 108.188 87.7812 107.484 87.7812 106.273V106.258C87.7812 105.078 86.9844 104.359 85.7188 104.359H83.4844V108.188ZM94.0938 114.164C92.2734 114.164 91.2344 112.992 91.2344 111.07V105.719H93.1797V110.688C93.1797 111.859 93.7266 112.523 94.8359 112.523C95.9531 112.523 96.6641 111.719 96.6641 110.516V105.719H98.6094V114H96.6641V112.703H96.625C96.1953 113.586 95.3438 114.164 94.0938 114.164ZM100.211 114V105.719H102.156V107.016H102.195C102.625 106.125 103.469 105.547 104.727 105.547C106.547 105.547 107.586 106.719 107.586 108.641V114H105.641V109.031C105.641 107.852 105.094 107.188 103.984 107.188C102.867 107.188 102.156 108 102.156 109.195V114H100.211ZM108.695 114L112.367 108.32V108.297L108.727 102.727H111.109L113.727 106.969H113.812L116.422 102.727H118.68L114.914 108.352V108.375L118.617 114H116.297L113.633 109.852H113.562L110.891 114H108.695Z" fill="#F9F9FB"/>
<path opacity="0.2" d="M53.7891 130V129.273L56.7656 126.168C57.9082 124.979 58.1719 124.521 58.1719 123.818V123.807C58.166 122.945 57.5156 122.324 56.5957 122.324C55.541 122.324 54.7559 123.051 54.7559 123.959V123.988H53.7363V123.953C53.7363 122.488 55.002 121.404 56.5781 121.404C58.1074 121.404 59.2266 122.43 59.2266 123.754V123.766C59.2266 124.691 58.7988 125.389 57.2461 126.977L55.2363 129.039V129.062H59.3672V130H53.7891ZM63.5332 130.141C61.5879 130.141 60.4336 128.459 60.4336 125.775V125.764C60.4336 123.08 61.5879 121.404 63.5332 121.404C65.4785 121.404 66.6445 123.08 66.6445 125.764V125.775C66.6445 128.459 65.4785 130.141 63.5332 130.141ZM63.5332 129.221C64.8223 129.221 65.584 127.896 65.584 125.775V125.764C65.584 123.643 64.8223 122.33 63.5332 122.33C62.2441 122.33 61.4941 123.643 61.4941 125.764V125.775C61.4941 127.896 62.2441 129.221 63.5332 129.221ZM70.8105 130.141C68.8652 130.141 67.7109 128.459 67.7109 125.775V125.764C67.7109 123.08 68.8652 121.404 70.8105 121.404C72.7559 121.404 73.9219 123.08 73.9219 125.764V125.775C73.9219 128.459 72.7559 130.141 70.8105 130.141ZM70.8105 129.221C72.0996 129.221 72.8613 127.896 72.8613 125.775V125.764C72.8613 123.643 72.0996 122.33 70.8105 122.33C69.5215 122.33 68.7715 123.643 68.7715 125.764V125.775C68.7715 127.896 69.5215 129.221 70.8105 129.221ZM77.6309 130V123.906H82.5996V130H81.5742V124.75H78.6504V130H77.6309ZM86.5605 130.117C84.8672 130.117 83.7363 128.893 83.7363 126.953V126.941C83.7363 125.002 84.873 123.789 86.5547 123.789C88.2363 123.789 89.3789 124.996 89.3789 126.941V126.953C89.3789 128.898 88.2422 130.117 86.5605 130.117ZM86.5664 129.215C87.6387 129.215 88.3359 128.383 88.3359 126.953V126.941C88.3359 125.512 87.6328 124.691 86.5547 124.691C85.4941 124.691 84.7793 125.518 84.7793 126.941V126.953C84.7793 128.389 85.4883 129.215 86.5664 129.215ZM90.75 131.67H89.8008V129.156H90.3105C90.7559 128.863 90.9727 128.107 91.0312 127.287L91.2656 123.906H95.4609V129.156H96.4277V131.67H95.4785V130H90.75V131.67ZM94.4414 129.156V124.75H92.1621L91.9746 127.311C91.9219 128.078 91.7637 128.74 91.459 129.133V129.156H94.4414ZM97.3418 130V123.906H102.311V130H101.285V124.75H98.3613V130H97.3418ZM103.74 130V123.906H104.76V128.436H104.807L107.842 123.906H108.85V130H107.83V125.471H107.783L104.748 130H103.74ZM112.811 130.117C111.082 130.117 109.986 128.887 109.986 126.947V126.941C109.986 125.02 111.105 123.789 112.799 123.789C114.316 123.789 115.213 124.797 115.342 125.84L115.348 125.887H114.352L114.34 125.84C114.188 125.23 113.695 124.691 112.799 124.691C111.738 124.691 111.029 125.57 111.029 126.953V126.959C111.029 128.377 111.756 129.215 112.811 129.215C113.643 129.215 114.176 128.746 114.346 128.066L114.357 128.02H115.359L115.354 128.061C115.189 129.221 114.188 130.117 112.811 130.117ZM121.055 130H120.035V127.334H120.012C119.631 127.674 119.057 127.844 118.477 127.844C117.012 127.844 116.256 127.012 116.256 125.717V123.906H117.275V125.646C117.275 126.514 117.738 126.941 118.67 126.941C119.209 126.941 119.754 126.754 120.035 126.473V123.906H121.055V130ZM122.49 130V123.906H123.51V128.436H123.557L126.592 123.906H127.6V130H126.58V125.471H126.533L123.498 130H122.49ZM130.283 127.188H130.049V130H129.029V123.906H130.049V126.484H130.283L132.686 123.906H133.922L131.203 126.789L134.004 130H132.715L130.283 127.188ZM137.268 130.117C135.574 130.117 134.443 128.893 134.443 126.953V126.941C134.443 125.002 135.58 123.789 137.262 123.789C138.943 123.789 140.086 124.996 140.086 126.941V126.953C140.086 128.898 138.949 130.117 137.268 130.117ZM137.273 129.215C138.346 129.215 139.043 128.383 139.043 126.953V126.941C139.043 125.512 138.34 124.691 137.262 124.691C136.201 124.691 135.486 125.518 135.486 126.941V126.953C135.486 128.389 136.195 129.215 137.273 129.215ZM141.229 130V123.906H143.836C144.979 123.906 145.676 124.51 145.676 125.477V125.488C145.676 126.115 145.236 126.689 144.674 126.807V126.854C145.441 126.959 145.945 127.498 145.945 128.242V128.254C145.945 129.326 145.148 130 143.854 130H141.229ZM142.248 126.455H143.531C144.299 126.455 144.662 126.18 144.662 125.594V125.582C144.662 125.037 144.322 124.75 143.684 124.75H142.248V126.455ZM142.248 129.156H143.766C144.504 129.156 144.902 128.84 144.902 128.23V128.219C144.902 127.592 144.475 127.299 143.584 127.299H142.248V129.156Z" fill="white"/>
<path d="M39.8672 159.164C37.0713 159.164 35.2939 157.195 35.2939 154.064V154.058C35.2939 150.927 37.0713 148.972 39.8672 148.972C42.041 148.972 43.6748 150.312 43.9893 152.26L43.9961 152.321H42.4785L42.4375 152.185C42.1094 151.029 41.1934 150.325 39.8672 150.325C38.0352 150.325 36.8594 151.774 36.8594 154.058V154.064C36.8594 156.348 38.042 157.811 39.8672 157.811C41.1797 157.811 42.0889 157.127 42.4648 155.876L42.4785 155.814H44.0029L43.9893 155.883C43.6816 157.845 42.0479 159.164 39.8672 159.164ZM47.3594 155.773C47.2158 157.79 46.7305 159.068 45.1172 159.068C44.8369 159.068 44.6318 159.027 44.5293 158.993V157.701C44.5977 157.722 44.7275 157.749 44.9121 157.749C45.6572 157.749 45.9102 157.004 45.999 155.698L46.2588 151.809H51.5156V159H50.0391V152.984H47.5576L47.3594 155.773ZM56.1777 159.144C54.0654 159.144 52.7871 157.701 52.7871 155.432V155.425C52.7871 153.176 54.0859 151.672 56.1025 151.672C58.1191 151.672 59.3564 153.121 59.3564 155.281V155.78H54.2637C54.291 157.141 55.0361 157.934 56.2119 157.934C57.0869 157.934 57.668 157.482 57.8525 156.942L57.873 156.888H59.2812L59.2607 156.963C59.0352 158.104 57.9209 159.144 56.1777 159.144ZM56.1094 152.882C55.1523 152.882 54.4209 153.531 54.2842 154.734H57.8936C57.7773 153.49 57.0732 152.882 56.1094 152.882ZM61.209 160.948H59.8418V157.817H60.4229C60.9492 157.489 61.1885 156.635 61.2568 155.664L61.5166 151.809H66.7598V157.817H67.874V160.948H66.5137V159H61.209V160.948ZM65.2764 157.817V152.991H62.7881L62.5898 155.726C62.5352 156.587 62.3574 157.312 62.0088 157.783V157.817H65.2764ZM68.8857 159V151.809H70.3486V156.84H70.417L73.7188 151.809H75.1748V159H73.7051V153.948H73.6436L70.3418 159H68.8857ZM82.1953 159.144C80.5137 159.144 79.3584 158.337 79.2148 157.065L79.208 157.004H80.6572L80.6777 157.072C80.8418 157.653 81.375 157.968 82.1885 157.968C83.0977 157.968 83.6582 157.564 83.6582 156.908V156.895C83.6582 156.204 83.1797 155.876 82.1816 155.876H81.1426V154.803H82.1748C83.043 154.803 83.4873 154.475 83.4873 153.832V153.818C83.4873 153.203 83.0225 152.841 82.2432 152.841C81.4707 152.841 80.9307 153.176 80.8213 153.723L80.8145 153.771H79.4062L79.4131 153.716C79.584 152.438 80.6436 151.672 82.2637 151.672C83.918 151.672 84.9297 152.431 84.9297 153.661V153.675C84.9297 154.447 84.4307 155.056 83.6582 155.233V155.288C84.6084 155.479 85.1279 156.054 85.1279 156.895V156.908C85.1279 158.248 83.959 159.144 82.1953 159.144ZM88.5391 159.13C87.1035 159.13 86.1396 158.248 86.1396 156.956V156.942C86.1396 155.691 87.1104 154.926 88.8125 154.823L90.7744 154.707V154.167C90.7744 153.374 90.2549 152.896 89.3389 152.896C88.4844 152.896 87.958 153.299 87.835 153.873L87.8213 153.935H86.4268L86.4336 153.859C86.5361 152.622 87.6094 151.672 89.3799 151.672C91.1367 151.672 92.251 152.602 92.251 154.044V159H90.7744V157.865H90.7402C90.3232 158.638 89.4961 159.13 88.5391 159.13ZM87.6299 156.922C87.6299 157.551 88.1494 157.947 88.9424 157.947C89.9814 157.947 90.7744 157.243 90.7744 156.307V155.746L89.0107 155.855C88.1221 155.91 87.6299 156.3 87.6299 156.908V156.922ZM101.37 159V155.876H98.1299V159H96.6533V151.809H98.1299V154.707H101.37V151.809H102.847V159H101.37ZM107.522 159.144C105.458 159.144 104.111 157.715 104.111 155.404V155.391C104.111 153.094 105.479 151.672 107.522 151.672C109.566 151.672 110.934 153.087 110.934 155.391V155.404C110.934 157.722 109.58 159.144 107.522 159.144ZM107.529 157.906C108.685 157.906 109.43 156.99 109.43 155.404V155.391C109.43 153.818 108.671 152.909 107.522 152.909C106.381 152.909 105.622 153.818 105.622 155.391V155.404C105.622 156.997 106.374 157.906 107.529 157.906ZM112.198 159V151.809H115.466C116.867 151.809 117.715 152.513 117.715 153.654V153.668C117.715 154.413 117.182 155.09 116.491 155.22V155.274C117.421 155.397 118.036 156.04 118.036 156.922V156.936C118.036 158.193 117.065 159 115.507 159H112.198ZM113.661 154.775H115.008C115.842 154.775 116.252 154.468 116.252 153.832V153.818C116.252 153.224 115.869 152.902 115.158 152.902H113.661V154.775ZM113.661 157.906H115.233C116.067 157.906 116.519 157.558 116.519 156.874V156.86C116.519 156.17 116.033 155.849 115.062 155.849H113.661V157.906ZM122.438 159.144C120.374 159.144 119.027 157.715 119.027 155.404V155.391C119.027 153.094 120.395 151.672 122.438 151.672C124.482 151.672 125.85 153.087 125.85 155.391V155.404C125.85 157.722 124.496 159.144 122.438 159.144ZM122.445 157.906C123.601 157.906 124.346 156.99 124.346 155.404V155.391C124.346 153.818 123.587 152.909 122.438 152.909C121.297 152.909 120.538 153.818 120.538 155.391V155.404C120.538 156.997 121.29 157.906 122.445 157.906ZM130.204 159.144C128.105 159.144 126.793 157.701 126.793 155.397V155.391C126.793 153.114 128.133 151.672 130.19 151.672C132.036 151.672 133.157 152.861 133.28 154.215L133.287 154.263H131.879L131.865 154.208C131.708 153.504 131.161 152.909 130.197 152.909C129.049 152.909 128.304 153.866 128.304 155.404V155.411C128.304 156.983 129.062 157.906 130.211 157.906C131.12 157.906 131.694 157.38 131.872 156.601L131.886 156.546H133.301L133.294 156.594C133.137 158.036 131.934 159.144 130.204 159.144ZM139.788 151.809V152.984H137.539V159H136.056V152.984H133.807V151.809H139.788ZM144.765 159V156.532H143.609L141.873 159H140.191L142.153 156.279C141.155 155.985 140.54 155.24 140.54 154.242V154.229C140.54 152.738 141.634 151.809 143.315 151.809H146.234V159H144.765ZM143.391 155.391H144.765V152.978H143.391C142.55 152.978 142.037 153.442 142.037 154.222V154.235C142.037 154.912 142.557 155.391 143.391 155.391ZM149.249 159H147.813V151.809H149.68L151.97 157.079H152.024L154.335 151.809H156.153V159H154.711V154.01H154.663L152.517 158.72H151.437L149.297 154.01H149.249V159ZM157.739 159V151.809H159.202V156.84H159.271L162.572 151.809H164.028V159H162.559V153.948H162.497L159.195 159H157.739Z" fill="#F9F9FB"/>
</g>
<g clip-path="url(#clip1_878_13378)">
<rect x="191.5" width="167.5" height="182" rx="20" fill="#161616"/>
<g filter="url(#filter1_dd_878_13378)">
<circle cx="275.25" cy="49" r="37" fill="#161616" fill-opacity="0.8"/>
<path d="M259.651 64.5992L290.85 33.4009L288.449 31L280.206 39.2424C272.85 46.5991 275.782 47.5988 268.586 54.793L259.215 64.1636L258.858 63.8057L268.228 54.4351C272.187 50.0434 276.221 45.1688 269.052 38.0001C265.789 34.7366 262.052 31 262.052 31L257.25 35.8018L264.938 43.4897C268.961 47.5127 269.963 49.4865 265.335 54.1148L257.25 62.1983L259.651 64.5992Z" fill="#E1FF01"/>
<path d="M259.648 64.5996L290.847 33.4014L293.248 35.8023L285.006 44.0446C277.649 51.4014 276.649 48.4691 269.455 55.6645L260.084 65.0352L260.442 65.3931L269.813 56.0224C274.205 52.0638 279.079 48.03 286.248 55.1987C289.512 58.4621 293.248 62.1987 293.248 62.1987L288.447 67.0005C288.447 67.0005 283.96 62.5142 280.758 59.3126C276.735 55.2897 274.761 54.2876 270.133 58.9159L262.049 66.9993L259.648 64.5984V64.5996Z" fill="#E1FF01"/>
<path d="M259.651 64.5992L290.85 33.4009L288.449 31L280.206 39.2424C272.85 46.5991 275.782 47.5988 268.586 54.793L259.215 64.1636L258.858 63.8057L268.228 54.4351C272.187 50.0434 276.221 45.1688 269.052 38.0001C265.789 34.7366 262.052 31 262.052 31L257.25 35.8018L264.938 43.4897C268.961 47.5127 269.963 49.4865 265.335 54.1148L257.25 62.1983L259.651 64.5992Z" fill="#E1FF01"/>
</g>
<path d="M241.75 114V102.727H246.25C248.656 102.727 250.125 104.062 250.125 106.242V106.258C250.125 107.773 249.312 109 248 109.477L250.461 114H248.164L245.945 109.781H243.766V114H241.75ZM243.766 108.188H246.039C247.312 108.188 248.062 107.484 248.062 106.273V106.258C248.062 105.078 247.266 104.359 246 104.359H243.766V108.188ZM254.375 114.164C252.555 114.164 251.516 112.992 251.516 111.07V105.719H253.461V110.688C253.461 111.859 254.008 112.523 255.117 112.523C256.234 112.523 256.945 111.719 256.945 110.516V105.719H258.891V114H256.945V112.703H256.906C256.477 113.586 255.625 114.164 254.375 114.164ZM260.492 114V105.719H262.438V107.016H262.477C262.906 106.125 263.75 105.547 265.008 105.547C266.828 105.547 267.867 106.719 267.867 108.641V114H265.922V109.031C265.922 107.852 265.375 107.188 264.266 107.188C263.148 107.188 262.438 108 262.438 109.195V114H260.492ZM268.977 114L272.648 108.32V108.297L269.008 102.727H271.391L274.008 106.969H274.094L276.703 102.727H278.961L275.195 108.352V108.375L278.898 114H276.578L273.914 109.852H273.844L271.172 114H268.977ZM290.445 114V109.273H290.406C289.961 109.578 289.047 110 287.711 110C284.906 110 283.398 108.211 283.398 105.836V102.727H285.406V105.742C285.406 107.305 286.312 108.258 287.977 108.258C289.055 108.258 289.938 107.938 290.445 107.477V102.727H292.461V114H290.445ZM296.852 114.141C295.188 114.141 294.07 113.117 294.07 111.641V111.625C294.07 110.156 295.219 109.273 297.219 109.148L299.383 109.016V108.445C299.383 107.609 298.836 107.102 297.859 107.102C296.938 107.102 296.367 107.531 296.242 108.141L296.227 108.211H294.422L294.43 108.117C294.555 106.648 295.82 105.547 297.922 105.547C300 105.547 301.328 106.641 301.328 108.305V114H299.383V112.727H299.344C298.859 113.594 297.938 114.141 296.852 114.141ZM296.016 111.562C296.016 112.242 296.57 112.656 297.43 112.656C298.547 112.656 299.383 111.914 299.383 110.93V110.305L297.492 110.422C296.539 110.484 296.016 110.898 296.016 111.555V111.562ZM309.406 105.719V107.227H306.867V114H304.922V107.227H302.383V105.719H309.406Z" fill="#F9F9FB"/>
<path opacity="0.2" d="M229.289 130V129.273L232.266 126.168C233.408 124.979 233.672 124.521 233.672 123.818V123.807C233.666 122.945 233.016 122.324 232.096 122.324C231.041 122.324 230.256 123.051 230.256 123.959V123.988H229.236V123.953C229.236 122.488 230.502 121.404 232.078 121.404C233.607 121.404 234.727 122.43 234.727 123.754V123.766C234.727 124.691 234.299 125.389 232.746 126.977L230.736 129.039V129.062H234.867V130H229.289ZM239.033 130.141C237.088 130.141 235.934 128.459 235.934 125.775V125.764C235.934 123.08 237.088 121.404 239.033 121.404C240.979 121.404 242.145 123.08 242.145 125.764V125.775C242.145 128.459 240.979 130.141 239.033 130.141ZM239.033 129.221C240.322 129.221 241.084 127.896 241.084 125.775V125.764C241.084 123.643 240.322 122.33 239.033 122.33C237.744 122.33 236.994 123.643 236.994 125.764V125.775C236.994 127.896 237.744 129.221 239.033 129.221ZM246.311 130.141C244.365 130.141 243.211 128.459 243.211 125.775V125.764C243.211 123.08 244.365 121.404 246.311 121.404C248.256 121.404 249.422 123.08 249.422 125.764V125.775C249.422 128.459 248.256 130.141 246.311 130.141ZM246.311 129.221C247.6 129.221 248.361 127.896 248.361 125.775V125.764C248.361 123.643 247.6 122.33 246.311 122.33C245.021 122.33 244.271 123.643 244.271 125.764V125.775C244.271 127.896 245.021 129.221 246.311 129.221ZM253.131 130V123.906H258.1V130H257.074V124.75H254.15V130H253.131ZM262.061 130.117C260.367 130.117 259.236 128.893 259.236 126.953V126.941C259.236 125.002 260.373 123.789 262.055 123.789C263.736 123.789 264.879 124.996 264.879 126.941V126.953C264.879 128.898 263.742 130.117 262.061 130.117ZM262.066 129.215C263.139 129.215 263.836 128.383 263.836 126.953V126.941C263.836 125.512 263.133 124.691 262.055 124.691C260.994 124.691 260.279 125.518 260.279 126.941V126.953C260.279 128.389 260.988 129.215 262.066 129.215ZM266.25 131.67H265.301V129.156H265.811C266.256 128.863 266.473 128.107 266.531 127.287L266.766 123.906H270.961V129.156H271.928V131.67H270.979V130H266.25V131.67ZM269.941 129.156V124.75H267.662L267.475 127.311C267.422 128.078 267.264 128.74 266.959 129.133V129.156H269.941ZM272.842 130V123.906H277.811V130H276.785V124.75H273.861V130H272.842ZM279.24 130V123.906H280.26V128.436H280.307L283.342 123.906H284.35V130H283.33V125.471H283.283L280.248 130H279.24ZM288.311 130.117C286.582 130.117 285.486 128.887 285.486 126.947V126.941C285.486 125.02 286.605 123.789 288.299 123.789C289.816 123.789 290.713 124.797 290.842 125.84L290.848 125.887H289.852L289.84 125.84C289.688 125.23 289.195 124.691 288.299 124.691C287.238 124.691 286.529 125.57 286.529 126.953V126.959C286.529 128.377 287.256 129.215 288.311 129.215C289.143 129.215 289.676 128.746 289.846 128.066L289.857 128.02H290.859L290.854 128.061C290.689 129.221 289.688 130.117 288.311 130.117ZM296.555 130H295.535V127.334H295.512C295.131 127.674 294.557 127.844 293.977 127.844C292.512 127.844 291.756 127.012 291.756 125.717V123.906H292.775V125.646C292.775 126.514 293.238 126.941 294.17 126.941C294.709 126.941 295.254 126.754 295.535 126.473V123.906H296.555V130ZM297.99 130V123.906H299.01V128.436H299.057L302.092 123.906H303.1V130H302.08V125.471H302.033L298.998 130H297.99ZM305.783 127.188H305.549V130H304.529V123.906H305.549V126.484H305.783L308.186 123.906H309.422L306.703 126.789L309.504 130H308.215L305.783 127.188ZM312.768 130.117C311.074 130.117 309.943 128.893 309.943 126.953V126.941C309.943 125.002 311.08 123.789 312.762 123.789C314.443 123.789 315.586 124.996 315.586 126.941V126.953C315.586 128.898 314.449 130.117 312.768 130.117ZM312.773 129.215C313.846 129.215 314.543 128.383 314.543 126.953V126.941C314.543 125.512 313.84 124.691 312.762 124.691C311.701 124.691 310.986 125.518 310.986 126.941V126.953C310.986 128.389 311.695 129.215 312.773 129.215ZM316.729 130V123.906H319.336C320.479 123.906 321.176 124.51 321.176 125.477V125.488C321.176 126.115 320.736 126.689 320.174 126.807V126.854C320.941 126.959 321.445 127.498 321.445 128.242V128.254C321.445 129.326 320.648 130 319.354 130H316.729ZM317.748 126.455H319.031C319.799 126.455 320.162 126.18 320.162 125.594V125.582C320.162 125.037 319.822 124.75 319.184 124.75H317.748V126.455ZM317.748 129.156H319.266C320.004 129.156 320.402 128.84 320.402 128.23V128.219C320.402 127.592 319.975 127.299 319.084 127.299H317.748V129.156Z" fill="white"/>
<path d="M220.856 160.948H219.448V157.681H220.166C220.87 157.264 221.116 156.423 221.191 155.117L221.554 149.136H227.979V157.681H229.21V160.948H227.809V159H220.856V160.948ZM222.613 155.192C222.545 156.307 222.408 157.065 221.937 157.626V157.681H226.448V150.455H222.914L222.613 155.192ZM233.455 159.144C231.343 159.144 230.064 157.701 230.064 155.432V155.425C230.064 153.176 231.363 151.672 233.38 151.672C235.396 151.672 236.634 153.121 236.634 155.281V155.78H231.541C231.568 157.141 232.313 157.934 233.489 157.934C234.364 157.934 234.945 157.482 235.13 156.942L235.15 156.888H236.559L236.538 156.963C236.312 158.104 235.198 159.144 233.455 159.144ZM233.387 152.882C232.43 152.882 231.698 153.531 231.562 154.734H235.171C235.055 153.49 234.351 152.882 233.387 152.882ZM239.881 155.773C239.737 157.79 239.252 159.068 237.639 159.068C237.358 159.068 237.153 159.027 237.051 158.993V157.701C237.119 157.722 237.249 157.749 237.434 157.749C238.179 157.749 238.432 157.004 238.521 155.698L238.78 151.809H244.037V159H242.561V152.984H240.079L239.881 155.773ZM245.63 159V151.809H247.093V156.84H247.161L250.463 151.809H251.919V159H250.449V153.948H250.388L247.086 159H245.63ZM256.595 159.144C254.496 159.144 253.184 157.701 253.184 155.397V155.391C253.184 153.114 254.523 151.672 256.581 151.672C258.427 151.672 259.548 152.861 259.671 154.215L259.678 154.263H258.27L258.256 154.208C258.099 153.504 257.552 152.909 256.588 152.909C255.439 152.909 254.694 153.866 254.694 155.404V155.411C254.694 156.983 255.453 157.906 256.602 157.906C257.511 157.906 258.085 157.38 258.263 156.601L258.276 156.546H259.691L259.685 156.594C259.527 158.036 258.324 159.144 256.595 159.144ZM260.86 159V151.809H262.337V154.03H263.704C265.365 154.03 266.438 154.994 266.438 156.505V156.519C266.438 158.036 265.365 159 263.704 159H260.86ZM263.561 155.199H262.337V157.831H263.561C264.401 157.831 264.928 157.312 264.928 156.519V156.505C264.928 155.712 264.395 155.199 263.561 155.199ZM271.36 161.399C271.073 161.399 270.766 161.365 270.588 161.331V160.176C270.704 160.203 270.875 160.23 271.073 160.23C271.771 160.23 272.153 160.046 272.399 159.349L272.522 159.007L269.904 151.809H271.504L273.315 157.66H273.363L275.175 151.809H276.733L274.054 159.335C273.521 160.825 272.769 161.399 271.36 161.399ZM280.603 159.144C278.504 159.144 277.191 157.701 277.191 155.397V155.391C277.191 153.114 278.531 151.672 280.589 151.672C282.435 151.672 283.556 152.861 283.679 154.215L283.686 154.263H282.277L282.264 154.208C282.106 153.504 281.56 152.909 280.596 152.909C279.447 152.909 278.702 153.866 278.702 155.404V155.411C278.702 156.983 279.461 157.906 280.609 157.906C281.519 157.906 282.093 157.38 282.271 156.601L282.284 156.546H283.699L283.692 156.594C283.535 158.036 282.332 159.144 280.603 159.144ZM284.868 159V151.809H291V159H289.517V152.984H286.345V159H284.868ZM295.662 159.144C293.55 159.144 292.271 157.701 292.271 155.432V155.425C292.271 153.176 293.57 151.672 295.587 151.672C297.604 151.672 298.841 153.121 298.841 155.281V155.78H293.748C293.775 157.141 294.521 157.934 295.696 157.934C296.571 157.934 297.152 157.482 297.337 156.942L297.357 156.888H298.766L298.745 156.963C298.52 158.104 297.405 159.144 295.662 159.144ZM295.594 152.882C294.637 152.882 293.905 153.531 293.769 154.734H297.378C297.262 153.49 296.558 152.882 295.594 152.882ZM299.436 159L301.814 155.411L299.47 151.809H301.131L302.696 154.413H302.73L304.275 151.809H305.909L303.551 155.363L305.882 159H304.255L302.662 156.354H302.635L301.035 159H299.436ZM308.965 159.13C307.529 159.13 306.565 158.248 306.565 156.956V156.942C306.565 155.691 307.536 154.926 309.238 154.823L311.2 154.707V154.167C311.2 153.374 310.681 152.896 309.765 152.896C308.91 152.896 308.384 153.299 308.261 153.873L308.247 153.935H306.853L306.859 153.859C306.962 152.622 308.035 151.672 309.806 151.672C311.562 151.672 312.677 152.602 312.677 154.044V159H311.2V157.865H311.166C310.749 158.638 309.922 159.13 308.965 159.13ZM308.056 156.922C308.056 157.551 308.575 157.947 309.368 157.947C310.407 157.947 311.2 157.243 311.2 156.307V155.746L309.437 155.855C308.548 155.91 308.056 156.3 308.056 156.908V156.922ZM315.671 159H314.235V151.809H316.102L318.392 157.079H318.446L320.757 151.809H322.575V159H321.133V154.01H321.085L318.938 158.72H317.858L315.719 154.01H315.671V159ZM324.161 159V151.809H325.624V156.84H325.692L328.994 151.809H330.45V159H328.98V153.948H328.919L325.617 159H324.161Z" fill="#F9F9FB"/>
</g>
<defs>
<filter id="filter0_dd_878_13378" x="-17.25" y="-68" width="234" height="234" filterUnits="userSpaceOnUse" color-interpolation-filters="sRGB">
<feFlood flood-opacity="0" result="BackgroundImageFix"/>
<feColorMatrix in="SourceAlpha" type="matrix" values="0 0 0 0 0 0 0 0 0 0 0 0 0 0 0 0 0 0 127 0" result="hardAlpha"/>
<feOffset/>
<feGaussianBlur stdDeviation="6"/>
<feComposite in2="hardAlpha" operator="out"/>
<feColorMatrix type="matrix" values="0 0 0 0 0.882353 0 0 0 0 1 0 0 0 0 0.00392157 0 0 0 0.2 0"/>
<feBlend mode="normal" in2="BackgroundImageFix" result="effect1_dropShadow_878_13378"/>
<feColorMatrix in="SourceAlpha" type="matrix" values="0 0 0 0 0 0 0 0 0 0 0 0 0 0 0 0 0 0 127 0" result="hardAlpha"/>
<feOffset/>
<feGaussianBlur stdDeviation="40"/>
<feComposite in2="hardAlpha" operator="out"/>
<feColorMatrix type="matrix" values="0 0 0 0 0.882353 0 0 0 0 1 0 0 0 0 0.00392157 0 0 0 0.5 0"/>
<feBlend mode="normal" in2="effect1_dropShadow_878_13378" result="effect2_dropShadow_878_13378"/>
<feBlend mode="normal" in="SourceGraphic" in2="effect2_dropShadow_878_13378" result="shape"/>
</filter>
<filter id="filter1_dd_878_13378" x="158.25" y="-68" width="234" height="234" filterUnits="userSpaceOnUse" color-interpolation-filters="sRGB">
<feFlood flood-opacity="0" result="BackgroundImageFix"/>
<feColorMatrix in="SourceAlpha" type="matrix" values="0 0 0 0 0 0 0 0 0 0 0 0 0 0 0 0 0 0 127 0" result="hardAlpha"/>
<feOffset/>
<feGaussianBlur stdDeviation="6"/>
<feComposite in2="hardAlpha" operator="out"/>
<feColorMatrix type="matrix" values="0 0 0 0 0.882353 0 0 0 0 1 0 0 0 0 0.00392157 0 0 0 0.2 0"/>
<feBlend mode="normal" in2="BackgroundImageFix" result="effect1_dropShadow_878_13378"/>
<feColorMatrix in="SourceAlpha" type="matrix" values="0 0 0 0 0 0 0 0 0 0 0 0 0 0 0 0 0 0 127 0" result="hardAlpha"/>
<feOffset/>
<feGaussianBlur stdDeviation="40"/>
<feComposite in2="hardAlpha" operator="out"/>
<feColorMatrix type="matrix" values="0 0 0 0 0.882353 0 0 0 0 1 0 0 0 0 0.00392157 0 0 0 0.5 0"/>
<feBlend mode="normal" in2="effect1_dropShadow_878_13378" result="effect2_dropShadow_878_13378"/>
<feBlend mode="normal" in="SourceGraphic" in2="effect2_dropShadow_878_13378" result="shape"/>
</filter>
<clipPath id="clip0_878_13378">
<rect x="16" width="167.5" height="182" rx="20" fill="white"/>
</clipPath>
<clipPath id="clip1_878_13378">
<rect x="191.5" width="167.5" height="182" rx="20" fill="white"/>
</clipPath>
</defs>
</svg>
