<svg width="190" height="240" viewBox="0 0 190 240" fill="none" xmlns="http://www.w3.org/2000/svg">
<path d="M8.6 13.8L6.45 11.65C6.26667 11.4667 6.03333 11.375 5.75 11.375C5.46667 11.375 5.23333 11.4667 5.05 11.65C4.86667 11.8333 4.775 12.0667 4.775 12.35C4.775 12.6333 4.86667 12.8667 5.05 13.05L7.9 15.9C8.1 16.1 8.33333 16.2 8.6 16.2C8.86667 16.2 9.1 16.1 9.3 15.9L14.95 10.25C15.1333 10.0667 15.225 9.83333 15.225 9.55C15.225 9.26667 15.1333 9.03333 14.95 8.85C14.7667 8.66667 14.5333 8.575 14.25 8.575C13.9667 8.575 13.7333 8.66667 13.55 8.85L8.6 13.8ZM10 22C8.61667 22 7.31667 21.7375 6.1 21.2125C4.88333 20.6875 3.825 19.975 2.925 19.075C2.025 18.175 1.3125 17.1167 0.7875 15.9C0.2625 14.6833 0 13.3833 0 12C0 10.6167 0.2625 9.31667 0.7875 8.1C1.3125 6.88333 2.025 5.825 2.925 4.925C3.825 4.025 4.88333 3.3125 6.1 2.7875C7.31667 2.2625 8.61667 2 10 2C11.3833 2 12.6833 2.2625 13.9 2.7875C15.1167 3.3125 16.175 4.025 17.075 4.925C17.975 5.825 18.6875 6.88333 19.2125 8.1C19.7375 9.31667 20 10.6167 20 12C20 13.3833 19.7375 14.6833 19.2125 15.9C18.6875 17.1167 17.975 18.175 17.075 19.075C16.175 19.975 15.1167 20.6875 13.9 21.2125C12.6833 21.7375 11.3833 22 10 22Z" fill="white"/>
<path d="M33.8828 18.1875C30.75 18.1875 28.7344 15.9062 28.7344 12.3594V12.3516C28.7344 8.80469 30.7422 6.53906 33.8828 6.53906C36.2266 6.53906 38.0469 7.96094 38.4766 10.0938L38.4922 10.1719H37.0703L37.0156 10C36.5781 8.63281 35.4688 7.83594 33.8828 7.83594C31.6328 7.83594 30.1797 9.60938 30.1797 12.3516V12.3594C30.1797 15.1016 31.6406 16.8906 33.8828 16.8906C35.4609 16.8906 36.5547 16.1094 37.0469 14.625L37.0703 14.5547H38.4922L38.4766 14.6328C38.0469 16.7891 36.2422 18.1875 33.8828 18.1875ZM43.4688 18.1562C41.2109 18.1562 39.7031 16.5234 39.7031 13.9375V13.9219C39.7031 11.3359 41.2188 9.71875 43.4609 9.71875C45.7031 9.71875 47.2266 11.3281 47.2266 13.9219V13.9375C47.2266 16.5312 45.7109 18.1562 43.4688 18.1562ZM43.4766 16.9531C44.9062 16.9531 45.8359 15.8438 45.8359 13.9375V13.9219C45.8359 12.0156 44.8984 10.9219 43.4609 10.9219C42.0469 10.9219 41.0938 12.0234 41.0938 13.9219V13.9375C41.0938 15.8516 42.0391 16.9531 43.4766 16.9531ZM51.4609 18.1562C49.6953 18.1562 48.4219 17.2812 48.2578 15.9531L48.25 15.8906H49.625L49.6484 15.9688C49.8438 16.6484 50.4922 17.0312 51.4609 17.0312C52.5859 17.0312 53.2969 16.5156 53.2969 15.6953V15.6797C53.2969 14.8125 52.7031 14.4062 51.4609 14.4062H50.2422V13.2812H51.4609C52.5391 13.2812 53.0781 12.875 53.0781 12.0703V12.0547C53.0781 11.2969 52.5078 10.8438 51.5469 10.8438C50.6172 10.8438 49.9375 11.2578 49.8125 11.8906L49.8047 11.9297H48.4844L48.4922 11.875C48.6797 10.5625 49.8594 9.71875 51.5469 9.71875C53.3203 9.71875 54.4062 10.5703 54.4062 11.9453V11.9609C54.4062 12.8281 53.8359 13.5547 53.0078 13.7422V13.8047C54.0547 14.0312 54.6328 14.6797 54.6328 15.6172V15.6328C54.6328 17.1406 53.3594 18.1562 51.4609 18.1562ZM56.6484 20.2266H55.3828V16.875H56.0625C56.6562 16.4844 56.9453 15.4766 57.0234 14.3828L57.3359 9.875H62.9297V16.875H64.2188V20.2266H62.9531V18H56.6484V20.2266ZM61.5703 16.875V11H58.5312L58.2812 14.4141C58.2109 15.4375 58 16.3203 57.5938 16.8438V16.875H61.5703ZM67.8203 18.1562C66.2031 18.1562 65.1172 17.1797 65.1172 15.7031V15.6875C65.1172 14.3047 66.1953 13.4375 68.0625 13.3281L70.3906 13.1953V12.5156C70.3906 11.5234 69.7422 10.9219 68.6094 10.9219C67.5625 10.9219 66.9062 11.4219 66.75 12.1484L66.7344 12.2188H65.4219L65.4297 12.1328C65.5469 10.7969 66.7109 9.71875 68.625 9.71875C70.5469 9.71875 71.75 10.7578 71.75 12.3828V18H70.3906V16.6797H70.3594C69.8828 17.5703 68.9062 18.1562 67.8203 18.1562ZM66.5078 15.7031C66.5078 16.4844 67.1484 16.9766 68.125 16.9766C69.4062 16.9766 70.3906 16.0938 70.3906 14.9141V14.25L68.2188 14.3828C67.1328 14.4453 66.5078 14.9297 66.5078 15.6875V15.7031ZM78.9609 18V14.3516H74.9844V18H73.625V9.875H74.9844V13.2266H78.9609V9.875H80.3203V18H78.9609ZM82.2344 18V9.875H83.5938V15.9141H83.6562L87.7031 9.875H89.0469V18H87.6875V11.9609H87.625L83.5781 18H82.2344ZM94.3047 18.1562C91.9688 18.1562 90.5625 16.5234 90.5625 13.9688V13.9609C90.5625 11.4453 92 9.71875 94.2188 9.71875C96.4375 9.71875 97.7891 11.3672 97.7891 13.8047V14.3047H91.9375C91.9688 15.9766 92.8906 16.9531 94.3359 16.9531C95.3672 16.9531 96.0938 16.4375 96.3281 15.7422L96.3516 15.6719H97.6875L97.6719 15.75C97.4062 17.0938 96.0781 18.1562 94.3047 18.1562ZM94.2109 10.9219C93.0312 10.9219 92.1094 11.7266 91.9609 13.2422H96.4062C96.2734 11.6641 95.3984 10.9219 94.2109 10.9219ZM103.953 18H102.594V9.875H104.258L107.133 16.2031H107.195L110.094 9.875H111.688V18H110.328V12.2344H110.273L107.656 17.7656H106.617L104.008 12.2344H103.953V18ZM115.977 18.1562C114.359 18.1562 113.273 17.1797 113.273 15.7031V15.6875C113.273 14.3047 114.352 13.4375 116.219 13.3281L118.547 13.1953V12.5156C118.547 11.5234 117.898 10.9219 116.766 10.9219C115.719 10.9219 115.062 11.4219 114.906 12.1484L114.891 12.2188H113.578L113.586 12.1328C113.703 10.7969 114.867 9.71875 116.781 9.71875C118.703 9.71875 119.906 10.7578 119.906 12.3828V18H118.547V16.6797H118.516C118.039 17.5703 117.062 18.1562 115.977 18.1562ZM114.664 15.7031C114.664 16.4844 115.305 16.9766 116.281 16.9766C117.562 16.9766 118.547 16.0938 118.547 14.9141V14.25L116.375 14.3828C115.289 14.4453 114.664 14.9297 114.664 15.6875V15.7031ZM121.789 20.7344V9.875H123.148V11.25H123.18C123.688 10.3047 124.594 9.71875 125.758 9.71875C127.836 9.71875 129.211 11.375 129.211 13.9375V13.9453C129.211 16.5078 127.82 18.1562 125.781 18.1562C124.633 18.1562 123.688 17.5781 123.18 16.6406H123.148V20.7344H121.789ZM125.492 16.9531C126.93 16.9531 127.82 15.7969 127.82 13.9453V13.9375C127.82 12.0703 126.93 10.9219 125.492 10.9219C124.117 10.9219 123.141 12.1172 123.141 13.9375V13.9453C123.141 15.7578 124.125 16.9531 125.492 16.9531ZM130.734 18V9.875H132.094V16.875H135.07V9.875H136.43V16.875H139.406V9.875H140.766V18H130.734ZM142.68 20.7344V9.875H144.039V11.25H144.07C144.578 10.3047 145.484 9.71875 146.648 9.71875C148.727 9.71875 150.102 11.375 150.102 13.9375V13.9453C150.102 16.5078 148.711 18.1562 146.672 18.1562C145.523 18.1562 144.578 17.5781 144.07 16.6406H144.039V20.7344H142.68ZM146.383 16.9531C147.82 16.9531 148.711 15.7969 148.711 13.9453V13.9375C148.711 12.0703 147.82 10.9219 146.383 10.9219C145.008 10.9219 144.031 12.1172 144.031 13.9375V13.9453C144.031 15.7578 145.016 16.9531 146.383 16.9531ZM152.18 20.7344C151.914 20.7344 151.625 20.7031 151.453 20.6719V19.5625C151.57 19.5859 151.727 19.6094 151.891 19.6094C152.75 19.6094 153.227 19.3906 153.555 18.4688L153.719 18.0078L150.703 9.875H152.156L154.398 16.6406H154.43L156.68 9.875H158.109L154.938 18.5078C154.359 20.0625 153.648 20.7344 152.18 20.7344ZM165.273 9.875V11H162.656V18H161.297V11H158.68V9.875H165.273ZM168.602 18.1562C166.984 18.1562 165.898 17.1797 165.898 15.7031V15.6875C165.898 14.3047 166.977 13.4375 168.844 13.3281L171.172 13.1953V12.5156C171.172 11.5234 170.523 10.9219 169.391 10.9219C168.344 10.9219 167.688 11.4219 167.531 12.1484L167.516 12.2188H166.203L166.211 12.1328C166.328 10.7969 167.492 9.71875 169.406 9.71875C171.328 9.71875 172.531 10.7578 172.531 12.3828V18H171.172V16.6797H171.141C170.664 17.5703 169.688 18.1562 168.602 18.1562ZM167.289 15.7031C167.289 16.4844 167.93 16.9766 168.906 16.9766C170.188 16.9766 171.172 16.0938 171.172 14.9141V14.25L169 14.3828C167.914 14.4453 167.289 14.9297 167.289 15.6875V15.7031Z" fill="white"/>
<circle cx="10" cy="48" r="9.5" stroke="white"/>
<path d="M29.5391 56.2266H28.2344V52.7344H29.0703C29.8906 52.2969 30.1953 51.2969 30.2812 49.8203L30.7109 42.7266H37.6875V52.7344H39.0938V56.2266H37.7891V54H29.5391V56.2266ZM31.6016 49.8516C31.5234 51.1406 31.3672 52 30.8125 52.6719V52.7344H36.2812V43.9922H31.9688L31.6016 49.8516ZM41.1484 56.7344C40.8828 56.7344 40.5938 56.7031 40.4219 56.6719V55.5625C40.5391 55.5859 40.6953 55.6094 40.8594 55.6094C41.7188 55.6094 42.1953 55.3906 42.5234 54.4688L42.6875 54.0078L39.6719 45.875H41.125L43.3672 52.6406H43.3984L45.6484 45.875H47.0781L43.9062 54.5078C43.3281 56.0625 42.6172 56.7344 41.1484 56.7344ZM51.1641 54.1562C49.3203 54.1562 47.9844 52.9609 47.7656 51.4141L47.7578 51.3594H49.0938L49.1094 51.4219C49.3359 52.3281 50.0469 52.9531 51.1562 52.9531C52.4609 52.9531 53.3906 51.9922 53.5156 50.3438H49.8516V49.2188H53.4766C53.2656 47.7969 52.3906 46.9219 51.1719 46.9219C49.9766 46.9219 49.3203 47.6406 49.1172 48.4531L49.1016 48.5156H47.7734L47.7812 48.4531C47.9531 47.0625 49.1484 45.7188 51.1797 45.7188C53.4297 45.7188 54.9219 47.3594 54.9219 49.9219V49.9297C54.9219 52.5156 53.4609 54.1562 51.1641 54.1562ZM58.3828 50.4219C58.2109 52.6641 57.6875 54.0781 55.9609 54.0781C55.7031 54.0781 55.5 54.0391 55.3906 54V52.7734C55.4609 52.7969 55.6094 52.8281 55.8203 52.8281C56.6875 52.8281 56.9844 51.8828 57.0938 50.3906L57.4141 45.875H63.125V54H61.7656V47H58.6406L58.3828 50.4219ZM65.0469 54V45.875H66.4062V51.9141H66.4688L70.5156 45.875H71.8594V54H70.5V47.9609H70.4375L66.3906 54H65.0469ZM77.5078 56.2266H76.2422V52.875H76.9219C77.5156 52.4844 77.8047 51.4766 77.8828 50.3828L78.1953 45.875H83.7891V52.875H85.0781V56.2266H83.8125V54H77.5078V56.2266ZM82.4297 52.875V47H79.3906L79.1406 50.4141C79.0703 51.4375 78.8594 52.3203 78.4531 52.8438V52.875H82.4297ZM88.5547 50.4219C88.3828 52.6641 87.8594 54.0781 86.1328 54.0781C85.875 54.0781 85.6719 54.0391 85.5625 54V52.7734C85.6328 52.7969 85.7812 52.8281 85.9922 52.8281C86.8594 52.8281 87.1562 51.8828 87.2656 50.3906L87.5859 45.875H93.2969V54H91.9375V47H88.8125L88.5547 50.4219ZM99.7969 54V51.1094H98.2734L96.2109 54H94.6406L96.9062 50.8594C95.7578 50.5312 95.0625 49.6875 95.0625 48.5781V48.5625C95.0625 46.8984 96.2656 45.875 98.1328 45.875H101.156V54H99.7969ZM98.1406 49.9844H99.7969V47H98.1406C97.0859 47 96.4531 47.5703 96.4531 48.5391V48.5547C96.4531 49.3906 97.0938 49.9844 98.1406 49.9844ZM106.805 56.2266H105.539V52.875H106.219C106.812 52.4844 107.102 51.4766 107.18 50.3828L107.492 45.875H113.086V52.875H114.375V56.2266H113.109V54H106.805V56.2266ZM111.727 52.875V47H108.688L108.438 50.4141C108.367 51.4375 108.156 52.3203 107.75 52.8438V52.875H111.727ZM115.602 56.7344V45.875H116.961V47.25H116.992C117.5 46.3047 118.406 45.7188 119.57 45.7188C121.648 45.7188 123.023 47.375 123.023 49.9375V49.9453C123.023 52.5078 121.633 54.1562 119.594 54.1562C118.445 54.1562 117.5 53.5781 116.992 52.6406H116.961V56.7344H115.602ZM119.305 52.9531C120.742 52.9531 121.633 51.7969 121.633 49.9453V49.9375C121.633 48.0703 120.742 46.9219 119.305 46.9219C117.93 46.9219 116.953 48.1172 116.953 49.9375V49.9453C116.953 51.7578 117.938 52.9531 119.305 52.9531ZM125.102 56.7344C124.836 56.7344 124.547 56.7031 124.375 56.6719V55.5625C124.492 55.5859 124.648 55.6094 124.812 55.6094C125.672 55.6094 126.148 55.3906 126.477 54.4688L126.641 54.0078L123.625 45.875H125.078L127.32 52.6406H127.352L129.602 45.875H131.031L127.859 54.5078C127.281 56.0625 126.57 56.7344 125.102 56.7344ZM134.961 54.1562C133.195 54.1562 131.922 53.2812 131.758 51.9531L131.75 51.8906H133.125L133.148 51.9688C133.344 52.6484 133.992 53.0312 134.961 53.0312C136.086 53.0312 136.797 52.5156 136.797 51.6953V51.6797C136.797 50.8125 136.203 50.4062 134.961 50.4062H133.742V49.2812H134.961C136.039 49.2812 136.578 48.875 136.578 48.0703V48.0547C136.578 47.2969 136.008 46.8438 135.047 46.8438C134.117 46.8438 133.438 47.2578 133.312 47.8906L133.305 47.9297H131.984L131.992 47.875C132.18 46.5625 133.359 45.7188 135.047 45.7188C136.82 45.7188 137.906 46.5703 137.906 47.9453V47.9609C137.906 48.8281 137.336 49.5547 136.508 49.7422V49.8047C137.555 50.0312 138.133 50.6797 138.133 51.6172V51.6328C138.133 53.1406 136.859 54.1562 134.961 54.1562ZM143.039 54.1562C140.703 54.1562 139.297 52.5234 139.297 49.9688V49.9609C139.297 47.4453 140.734 45.7188 142.953 45.7188C145.172 45.7188 146.523 47.3672 146.523 49.8047V50.3047H140.672C140.703 51.9766 141.625 52.9531 143.07 52.9531C144.102 52.9531 144.828 52.4375 145.062 51.7422L145.086 51.6719H146.422L146.406 51.75C146.141 53.0938 144.812 54.1562 143.039 54.1562ZM142.945 46.9219C141.766 46.9219 140.844 47.7266 140.695 49.2422H145.141C145.008 47.6641 144.133 46.9219 142.945 46.9219ZM151.547 44.9531C150.055 44.9531 149.172 43.9766 149.172 42.7422V42.7188H150.289V42.7578C150.289 43.4531 150.711 44.0469 151.555 44.0469C152.367 44.0469 152.82 43.4531 152.82 42.7578V42.7188H153.938V42.7422C153.938 43.9766 153.055 44.9531 151.547 44.9531ZM148.047 54V45.875H149.406V51.9141H149.469L153.516 45.875H154.859V54H153.5V47.9609H153.438L149.391 54H148.047Z" fill="white"/>
<circle cx="10" cy="84" r="9.5" stroke="white"/>
<path d="M28.9375 90.0781C28.7344 90.0781 28.5312 90.0469 28.3906 90V88.7422C28.4766 88.7656 28.6875 88.7891 28.8125 88.7891C29.8828 88.7891 30.3594 87.9141 30.4844 85.7344L30.8906 78.7266H37.8125V90H36.4062V79.9922H32.1719L31.8125 85.7891C31.625 88.7891 30.7578 90.0781 28.9375 90.0781ZM39.9375 90V81.875H41.2969V87.9141H41.3594L45.4062 81.875H46.75V90H45.3906V83.9609H45.3281L41.2812 90H39.9375ZM49.1172 92.2266H47.8516V88.875H48.5312C49.125 88.4844 49.4141 87.4766 49.4922 86.3828L49.8047 81.875H55.3984V88.875H56.6875V92.2266H55.4219V90H49.1172V92.2266ZM54.0391 88.875V83H51L50.75 86.4141C50.6797 87.4375 50.4688 88.3203 50.0625 88.8438V88.875H54.0391ZM61.2578 90.1562C58.9219 90.1562 57.5156 88.5234 57.5156 85.9688V85.9609C57.5156 83.4453 58.9531 81.7188 61.1719 81.7188C63.3906 81.7188 64.7422 83.3672 64.7422 85.8047V86.3047H58.8906C58.9219 87.9766 59.8438 88.9531 61.2891 88.9531C62.3203 88.9531 63.0469 88.4375 63.2812 87.7422L63.3047 87.6719H64.6406L64.625 87.75C64.3594 89.0938 63.0312 90.1562 61.2578 90.1562ZM61.1641 82.9219C59.9844 82.9219 59.0625 83.7266 58.9141 85.2422H63.3594C63.2266 83.6641 62.3516 82.9219 61.1641 82.9219ZM66.2734 92.7344V81.875H67.6328V83.25H67.6641C68.1719 82.3047 69.0781 81.7188 70.2422 81.7188C72.3203 81.7188 73.6953 83.375 73.6953 85.9375V85.9453C73.6953 88.5078 72.3047 90.1562 70.2656 90.1562C69.1172 90.1562 68.1719 89.5781 67.6641 88.6406H67.6328V92.7344H66.2734ZM69.9766 88.9531C71.4141 88.9531 72.3047 87.7969 72.3047 85.9453V85.9375C72.3047 84.0703 71.4141 82.9219 69.9766 82.9219C68.6016 82.9219 67.625 84.1172 67.625 85.9375V85.9453C67.625 87.7578 68.6094 88.9531 69.9766 88.9531ZM78.7031 90.1562C76.2109 90.1562 74.8984 88.4766 74.8984 85.25V85.2344C74.8984 80.7578 76.0859 78.8984 79.2422 78.7734L79.8438 78.75C80.625 78.7188 81.5 78.5547 81.9609 78.3125V79.5C81.7031 79.7344 80.8438 79.9375 79.9062 79.9766L79.3047 80C77.0781 80.0859 76.3984 81.0469 76.0625 83.3984L76.0469 83.5078H76.0781C76.6172 82.5469 77.6406 82.0469 78.9062 82.0469C81.1016 82.0469 82.5 83.5938 82.5 86.0078V86.0234C82.5 88.5781 81.0547 90.1562 78.7031 90.1562ZM78.7031 88.9531C80.2266 88.9531 81.1094 87.8906 81.1094 86.0234V86.0078C81.1094 84.2422 80.2266 83.25 78.7031 83.25C77.1719 83.25 76.2891 84.2422 76.2891 86.0078V86.0234C76.2891 87.8906 77.1719 88.9531 78.7031 88.9531ZM87.3906 90.1562C85.1328 90.1562 83.625 88.5234 83.625 85.9375V85.9219C83.625 83.3359 85.1406 81.7188 87.3828 81.7188C89.625 81.7188 91.1484 83.3281 91.1484 85.9219V85.9375C91.1484 88.5312 89.6328 90.1562 87.3906 90.1562ZM87.3984 88.9531C88.8281 88.9531 89.7578 87.8438 89.7578 85.9375V85.9219C89.7578 84.0156 88.8203 82.9219 87.3828 82.9219C85.9688 82.9219 85.0156 84.0234 85.0156 85.9219V85.9375C85.0156 87.8516 85.9609 88.9531 87.3984 88.9531ZM92.6797 92.7344V81.875H94.0391V83.25H94.0703C94.5781 82.3047 95.4844 81.7188 96.6484 81.7188C98.7266 81.7188 100.102 83.375 100.102 85.9375V85.9453C100.102 88.5078 98.7109 90.1562 96.6719 90.1562C95.5234 90.1562 94.5781 89.5781 94.0703 88.6406H94.0391V92.7344H92.6797ZM96.3828 88.9531C97.8203 88.9531 98.7109 87.7969 98.7109 85.9453V85.9375C98.7109 84.0703 97.8203 82.9219 96.3828 82.9219C95.0078 82.9219 94.0312 84.1172 94.0312 85.9375V85.9453C94.0312 87.7578 95.0156 88.9531 96.3828 88.9531ZM101.93 92.2266H100.664V88.875H101.344C101.938 88.4844 102.227 87.4766 102.305 86.3828L102.617 81.875H108.211V88.875H109.5V92.2266H108.234V90H101.93V92.2266ZM106.852 88.875V83H103.812L103.562 86.4141C103.492 87.4375 103.281 88.3203 102.875 88.8438V88.875H106.852Z" fill="white"/>
<circle cx="10" cy="120" r="9.5" stroke="white"/>
<path d="M29.1719 126V114.727H35.7578V115.992H30.5781V119.219H33.2578C35.375 119.219 36.8828 120.617 36.8828 122.609V122.625C36.8828 124.609 35.3906 126 33.2734 126H29.1719ZM30.5781 124.734H32.9062C34.5234 124.734 35.4453 123.977 35.4453 122.625V122.609C35.4453 121.25 34.5156 120.484 32.9062 120.484H30.5781V124.734ZM41.0078 126.156C39.3906 126.156 38.3047 125.18 38.3047 123.703V123.688C38.3047 122.305 39.3828 121.438 41.25 121.328L43.5781 121.195V120.516C43.5781 119.523 42.9297 118.922 41.7969 118.922C40.75 118.922 40.0938 119.422 39.9375 120.148L39.9219 120.219H38.6094L38.6172 120.133C38.7344 118.797 39.8984 117.719 41.8125 117.719C43.7344 117.719 44.9375 118.758 44.9375 120.383V126H43.5781V124.68H43.5469C43.0703 125.57 42.0938 126.156 41.0078 126.156ZM39.6953 123.703C39.6953 124.484 40.3359 124.977 41.3125 124.977C42.5938 124.977 43.5781 124.094 43.5781 122.914V122.25L41.4062 122.383C40.3203 122.445 39.6953 122.93 39.6953 123.688V123.703ZM49.5234 126.156C47.7578 126.156 46.4844 125.281 46.3203 123.953L46.3125 123.891H47.6875L47.7109 123.969C47.9062 124.648 48.5547 125.031 49.5234 125.031C50.6484 125.031 51.3594 124.516 51.3594 123.695V123.68C51.3594 122.812 50.7656 122.406 49.5234 122.406H48.3047V121.281H49.5234C50.6016 121.281 51.1406 120.875 51.1406 120.07V120.055C51.1406 119.297 50.5703 118.844 49.6094 118.844C48.6797 118.844 48 119.258 47.875 119.891L47.8672 119.93H46.5469L46.5547 119.875C46.7422 118.562 47.9219 117.719 49.6094 117.719C51.3828 117.719 52.4688 118.57 52.4688 119.945V119.961C52.4688 120.828 51.8984 121.555 51.0703 121.742V121.805C52.1172 122.031 52.6953 122.68 52.6953 123.617V123.633C52.6953 125.141 51.4219 126.156 49.5234 126.156ZM56.6328 126.156C55.0156 126.156 53.9297 125.18 53.9297 123.703V123.688C53.9297 122.305 55.0078 121.438 56.875 121.328L59.2031 121.195V120.516C59.2031 119.523 58.5547 118.922 57.4219 118.922C56.375 118.922 55.7188 119.422 55.5625 120.148L55.5469 120.219H54.2344L54.2422 120.133C54.3594 118.797 55.5234 117.719 57.4375 117.719C59.3594 117.719 60.5625 118.758 60.5625 120.383V126H59.2031V124.68H59.1719C58.6953 125.57 57.7188 126.156 56.6328 126.156ZM55.3203 123.703C55.3203 124.484 55.9609 124.977 56.9375 124.977C58.2188 124.977 59.2031 124.094 59.2031 122.914V122.25L57.0312 122.383C55.9453 122.445 55.3203 122.93 55.3203 123.688V123.703ZM68.4297 126.156C66.6641 126.156 65.3906 125.281 65.2266 123.953L65.2188 123.891H66.5938L66.6172 123.969C66.8125 124.648 67.4609 125.031 68.4297 125.031C69.5547 125.031 70.2656 124.516 70.2656 123.695V123.68C70.2656 122.812 69.6719 122.406 68.4297 122.406H67.2109V121.281H68.4297C69.5078 121.281 70.0469 120.875 70.0469 120.07V120.055C70.0469 119.297 69.4766 118.844 68.5156 118.844C67.5859 118.844 66.9062 119.258 66.7812 119.891L66.7734 119.93H65.4531L65.4609 119.875C65.6484 118.562 66.8281 117.719 68.5156 117.719C70.2891 117.719 71.375 118.57 71.375 119.945V119.961C71.375 120.828 70.8047 121.555 69.9766 121.742V121.805C71.0234 122.031 71.6016 122.68 71.6016 123.617V123.633C71.6016 125.141 70.3281 126.156 68.4297 126.156ZM78.4922 126V122.352H74.5156V126H73.1562V117.875H74.5156V121.227H78.4922V117.875H79.8516V126H78.4922ZM84.1484 126.156C82.5312 126.156 81.4453 125.18 81.4453 123.703V123.688C81.4453 122.305 82.5234 121.438 84.3906 121.328L86.7188 121.195V120.516C86.7188 119.523 86.0703 118.922 84.9375 118.922C83.8906 118.922 83.2344 119.422 83.0781 120.148L83.0625 120.219H81.75L81.7578 120.133C81.875 118.797 83.0391 117.719 84.9531 117.719C86.875 117.719 88.0781 118.758 88.0781 120.383V126H86.7188V124.68H86.6875C86.2109 125.57 85.2344 126.156 84.1484 126.156ZM82.8359 123.703C82.8359 124.484 83.4766 124.977 84.4531 124.977C85.7344 124.977 86.7188 124.094 86.7188 122.914V122.25L84.5469 122.383C83.4609 122.445 82.8359 122.93 82.8359 123.688V123.703ZM95.2891 126V122.352H91.3125V126H89.9531V117.875H91.3125V121.227H95.2891V117.875H96.6484V126H95.2891ZM98.5625 126V117.875H99.9219V123.914H99.9844L104.031 117.875H105.375V126H104.016V119.961H103.953L99.9062 126H98.5625ZM110.781 116.953C109.289 116.953 108.406 115.977 108.406 114.742V114.719H109.523V114.758C109.523 115.453 109.945 116.047 110.789 116.047C111.602 116.047 112.055 115.453 112.055 114.758V114.719H113.172V114.742C113.172 115.977 112.289 116.953 110.781 116.953ZM107.281 126V117.875H108.641V123.914H108.703L112.75 117.875H114.094V126H112.734V119.961H112.672L108.625 126H107.281Z" fill="white"/>
<circle cx="10" cy="156" r="9.5" stroke="white"/>
<path d="M29.1719 162V150.727H33.4453C35.375 150.727 36.6797 151.852 36.6797 153.539V153.555C36.6797 154.719 35.8047 155.852 34.6406 156.016V156.047C36.2656 156.234 37.25 157.328 37.25 158.82V158.836C37.25 160.82 35.8281 162 33.4297 162H29.1719ZM33.125 151.969H30.5781V155.586H32.6875C34.3516 155.586 35.2578 154.922 35.2578 153.703V153.688C35.2578 152.578 34.4844 151.969 33.125 151.969ZM33.0859 156.797H30.5781V160.758H33.2188C34.9062 160.758 35.8047 160.078 35.8047 158.781V158.766C35.8047 157.461 34.8828 156.797 33.0859 156.797ZM38.7812 162V153.875H40.1406V159.914H40.2031L44.25 153.875H45.5938V162H44.2344V155.961H44.1719L40.125 162H38.7812ZM47.9609 164.227H46.6953V160.875H47.375C47.9688 160.484 48.2578 159.477 48.3359 158.383L48.6484 153.875H54.2422V160.875H55.5312V164.227H54.2656V162H47.9609V164.227ZM52.8828 160.875V155H49.8438L49.5938 158.414C49.5234 159.438 49.3125 160.32 48.9062 160.844V160.875H52.8828ZM60.1016 162.156C57.7656 162.156 56.3594 160.523 56.3594 157.969V157.961C56.3594 155.445 57.7969 153.719 60.0156 153.719C62.2344 153.719 63.5859 155.367 63.5859 157.805V158.305H57.7344C57.7656 159.977 58.6875 160.953 60.1328 160.953C61.1641 160.953 61.8906 160.438 62.125 159.742L62.1484 159.672H63.4844L63.4688 159.75C63.2031 161.094 61.875 162.156 60.1016 162.156ZM60.0078 154.922C58.8281 154.922 57.9062 155.727 57.7578 157.242H62.2031C62.0703 155.664 61.1953 154.922 60.0078 154.922ZM68.4844 162.156C66.2266 162.156 64.7188 160.523 64.7188 157.938V157.922C64.7188 155.336 66.2344 153.719 68.4766 153.719C70.7188 153.719 72.2422 155.328 72.2422 157.922V157.938C72.2422 160.531 70.7266 162.156 68.4844 162.156ZM68.4922 160.953C69.9219 160.953 70.8516 159.844 70.8516 157.938V157.922C70.8516 156.016 69.9141 154.922 68.4766 154.922C67.0625 154.922 66.1094 156.023 66.1094 157.922V157.938C66.1094 159.852 67.0547 160.953 68.4922 160.953ZM74.3203 164.734C74.0547 164.734 73.7656 164.703 73.5938 164.672V163.562C73.7109 163.586 73.8672 163.609 74.0312 163.609C74.8906 163.609 75.3672 163.391 75.6953 162.469L75.8594 162.008L72.8438 153.875H74.2969L76.5391 160.641H76.5703L78.8203 153.875H80.25L77.0781 162.508C76.5 164.062 75.7891 164.734 74.3203 164.734ZM81.4766 164.734V153.875H82.8359V155.25H82.8672C83.375 154.305 84.2812 153.719 85.4453 153.719C87.5234 153.719 88.8984 155.375 88.8984 157.938V157.945C88.8984 160.508 87.5078 162.156 85.4688 162.156C84.3203 162.156 83.375 161.578 82.8672 160.641H82.8359V164.734H81.4766ZM85.1797 160.953C86.6172 160.953 87.5078 159.797 87.5078 157.945V157.938C87.5078 156.07 86.6172 154.922 85.1797 154.922C83.8047 154.922 82.8281 156.117 82.8281 157.938V157.945C82.8281 159.758 83.8125 160.953 85.1797 160.953ZM93.7969 162.156C91.5391 162.156 90.0312 160.523 90.0312 157.938V157.922C90.0312 155.336 91.5469 153.719 93.7891 153.719C96.0312 153.719 97.5547 155.328 97.5547 157.922V157.938C97.5547 160.531 96.0391 162.156 93.7969 162.156ZM93.8047 160.953C95.2344 160.953 96.1641 159.844 96.1641 157.938V157.922C96.1641 156.016 95.2266 154.922 93.7891 154.922C92.375 154.922 91.4219 156.023 91.4219 157.922V157.938C91.4219 159.852 92.3672 160.953 93.8047 160.953ZM100.75 158.25H100.438V162H99.0781V153.875H100.438V157.312H100.75L103.953 153.875H105.602L101.977 157.719L105.711 162H103.992L100.75 158.25ZM106.844 162V153.875H108.203V159.914H108.266L112.312 153.875H113.656V162H112.297V155.961H112.234L108.188 162H106.844Z" fill="white"/>
<circle cx="10" cy="192" r="9.5" stroke="white"/>
<path d="M29.1719 198V186.727H30.5781V191.602H36.7656V186.727H38.1719V198H36.7656V192.867H30.5781V198H29.1719ZM42.6797 198.156C41.0625 198.156 39.9766 197.18 39.9766 195.703V195.688C39.9766 194.305 41.0547 193.438 42.9219 193.328L45.25 193.195V192.516C45.25 191.523 44.6016 190.922 43.4688 190.922C42.4219 190.922 41.7656 191.422 41.6094 192.148L41.5938 192.219H40.2812L40.2891 192.133C40.4062 190.797 41.5703 189.719 43.4844 189.719C45.4062 189.719 46.6094 190.758 46.6094 192.383V198H45.25V196.68H45.2188C44.7422 197.57 43.7656 198.156 42.6797 198.156ZM41.3672 195.703C41.3672 196.484 42.0078 196.977 42.9844 196.977C44.2656 196.977 45.25 196.094 45.25 194.914V194.25L43.0781 194.383C41.9922 194.445 41.3672 194.93 41.3672 195.688V195.703ZM48.4844 198V189.875H51.9609C53.4844 189.875 54.4141 190.68 54.4141 191.969V191.984C54.4141 192.82 53.8281 193.586 53.0781 193.742V193.805C54.1016 193.945 54.7734 194.664 54.7734 195.656V195.672C54.7734 197.102 53.7109 198 51.9844 198H48.4844ZM49.8438 193.273H51.5547C52.5781 193.273 53.0625 192.906 53.0625 192.125V192.109C53.0625 191.383 52.6094 191 51.7578 191H49.8438V193.273ZM49.8438 196.875H51.8672C52.8516 196.875 53.3828 196.453 53.3828 195.641V195.625C53.3828 194.789 52.8125 194.398 51.625 194.398H49.8438V196.875ZM56.3281 198V189.875H57.6875V195.914H57.75L61.7969 189.875H63.1406V198H61.7812V191.961H61.7188L57.6719 198H56.3281ZM70.2734 191H66.4062V198H65.0469V189.875H70.2734V191ZM73.7422 198.156C72.125 198.156 71.0391 197.18 71.0391 195.703V195.688C71.0391 194.305 72.1172 193.438 73.9844 193.328L76.3125 193.195V192.516C76.3125 191.523 75.6641 190.922 74.5312 190.922C73.4844 190.922 72.8281 191.422 72.6719 192.148L72.6562 192.219H71.3438L71.3516 192.133C71.4688 190.797 72.6328 189.719 74.5469 189.719C76.4688 189.719 77.6719 190.758 77.6719 192.383V198H76.3125V196.68H76.2812C75.8047 197.57 74.8281 198.156 73.7422 198.156ZM72.4297 195.703C72.4297 196.484 73.0703 196.977 74.0469 196.977C75.3281 196.977 76.3125 196.094 76.3125 194.914V194.25L74.1406 194.383C73.0547 194.445 72.4297 194.93 72.4297 195.688V195.703ZM86.1953 200.227V198H79.5469V189.875H80.9141V196.875H84.8125V189.875H86.1719V196.875H87.4297V200.227H86.1953ZM88.6406 198V189.875H90V195.914H90.0625L94.1094 189.875H95.4531V198H94.0938V191.961H94.0312L89.9844 198H88.6406ZM101.938 198V195.109H100.414L98.3516 198H96.7812L99.0469 194.859C97.8984 194.531 97.2031 193.688 97.2031 192.578V192.562C97.2031 190.898 98.4062 189.875 100.273 189.875H103.297V198H101.938ZM100.281 193.984H101.938V191H100.281C99.2266 191 98.5938 191.57 98.5938 192.539V192.555C98.5938 193.391 99.2344 193.984 100.281 193.984ZM108.484 198V189.875H111.961C113.484 189.875 114.414 190.68 114.414 191.969V191.984C114.414 192.82 113.828 193.586 113.078 193.742V193.805C114.102 193.945 114.773 194.664 114.773 195.656V195.672C114.773 197.102 113.711 198 111.984 198H108.484ZM109.844 193.273H111.555C112.578 193.273 113.062 192.906 113.062 192.125V192.109C113.062 191.383 112.609 191 111.758 191H109.844V193.273ZM109.844 196.875H111.867C112.852 196.875 113.383 196.453 113.383 195.641V195.625C113.383 194.789 112.812 194.398 111.625 194.398H109.844V196.875ZM119.609 198V189.875H126.234V198H124.867V191H120.969V198H119.609ZM128.93 200.734C128.664 200.734 128.375 200.703 128.203 200.672V199.562C128.32 199.586 128.477 199.609 128.641 199.609C129.5 199.609 129.977 199.391 130.305 198.469L130.469 198.008L127.453 189.875H128.906L131.148 196.641H131.18L133.43 189.875H134.859L131.688 198.508C131.109 200.062 130.398 200.734 128.93 200.734ZM142.023 189.875V191H139.406V198H138.047V191H135.43V189.875H142.023ZM143.281 198V189.875H144.641V195.914H144.703L148.75 189.875H150.094V198H148.734V191.961H148.672L144.625 198H143.281Z" fill="white"/>
<circle cx="10" cy="228" r="9.5" stroke="white"/>
<path d="M36.1016 234V229.031H36.0703C35.4141 229.469 34.4922 229.812 33.2891 229.812C30.4375 229.812 28.9766 227.977 28.9766 225.672V222.727H30.3828V225.68C30.3828 227.422 31.4062 228.516 33.2812 228.516C34.4688 228.516 35.5156 228.156 36.1016 227.609V222.727H37.5078V234H36.1016ZM42.9922 234.156C40.6562 234.156 39.25 232.523 39.25 229.969V229.961C39.25 227.445 40.6875 225.719 42.9062 225.719C45.125 225.719 46.4766 227.367 46.4766 229.805V230.305H40.625C40.6562 231.977 41.5781 232.953 43.0234 232.953C44.0547 232.953 44.7812 232.438 45.0156 231.742L45.0391 231.672H46.375L46.3594 231.75C46.0938 233.094 44.7656 234.156 42.9922 234.156ZM42.8984 226.922C41.7188 226.922 40.7969 227.727 40.6484 229.242H45.0938C44.9609 227.664 44.0859 226.922 42.8984 226.922ZM49.6719 230.25H49.3594V234H48V225.875H49.3594V229.312H49.6719L52.875 225.875H54.5234L50.8984 229.719L54.6328 234H52.9141L49.6719 230.25ZM55.7656 234V225.875H62.3906V234H61.0234V227H57.125V234H55.7656ZM67.6719 234.156C65.4141 234.156 63.9062 232.523 63.9062 229.938V229.922C63.9062 227.336 65.4219 225.719 67.6641 225.719C69.9062 225.719 71.4297 227.328 71.4297 229.922V229.938C71.4297 232.531 69.9141 234.156 67.6719 234.156ZM67.6797 232.953C69.1094 232.953 70.0391 231.844 70.0391 229.938V229.922C70.0391 228.016 69.1016 226.922 67.6641 226.922C66.25 226.922 65.2969 228.023 65.2969 229.922V229.938C65.2969 231.852 66.2422 232.953 67.6797 232.953ZM76.4531 224.953C74.9609 224.953 74.0781 223.977 74.0781 222.742V222.719H75.1953V222.758C75.1953 223.453 75.6172 224.047 76.4609 224.047C77.2734 224.047 77.7266 223.453 77.7266 222.758V222.719H78.8438V222.742C78.8438 223.977 77.9609 224.953 76.4531 224.953ZM72.9531 234V225.875H74.3125V231.914H74.375L78.4219 225.875H79.7656V234H78.4062V227.961H78.3438L74.2969 234H72.9531ZM87.0078 234V230.352H83.0312V234H81.6719V225.875H83.0312V229.227H87.0078V225.875H88.3672V234H87.0078ZM96.2266 225.875V227H93.6094V234H92.25V227H89.6328V225.875H96.2266ZM97.4844 234V225.875H98.8438V228.469H100.367C102.227 228.469 103.422 229.539 103.422 231.227V231.242C103.422 232.93 102.227 234 100.367 234H97.4844ZM104.453 234V225.875H105.812V234H104.453ZM100.344 229.594H98.8438V232.875H100.344C101.383 232.875 102.031 232.227 102.031 231.242V231.227C102.031 230.234 101.375 229.594 100.344 229.594ZM111 234V225.875H112.359V231.914H112.422L116.469 225.875H117.812V234H116.453V227.961H116.391L112.344 234H111ZM128.336 234V230.352H124.359V234H123V225.875H124.359V229.227H128.336V225.875H129.695V234H128.336ZM133.992 234.156C132.375 234.156 131.289 233.18 131.289 231.703V231.688C131.289 230.305 132.367 229.438 134.234 229.328L136.562 229.195V228.516C136.562 227.523 135.914 226.922 134.781 226.922C133.734 226.922 133.078 227.422 132.922 228.148L132.906 228.219H131.594L131.602 228.133C131.719 226.797 132.883 225.719 134.797 225.719C136.719 225.719 137.922 226.758 137.922 228.383V234H136.562V232.68H136.531C136.055 233.57 135.078 234.156 133.992 234.156ZM132.68 231.703C132.68 232.484 133.32 232.977 134.297 232.977C135.578 232.977 136.562 232.094 136.562 230.914V230.25L134.391 230.383C133.305 230.445 132.68 230.93 132.68 231.688V231.703ZM145.023 227H141.156V234H139.797V225.875H145.023V227ZM146.508 236.734V225.875H147.867V227.25H147.898C148.406 226.305 149.312 225.719 150.477 225.719C152.555 225.719 153.93 227.375 153.93 229.938V229.945C153.93 232.508 152.539 234.156 150.5 234.156C149.352 234.156 148.406 233.578 147.898 232.641H147.867V236.734H146.508ZM150.211 232.953C151.648 232.953 152.539 231.797 152.539 229.945V229.938C152.539 228.07 151.648 226.922 150.211 226.922C148.836 226.922 147.859 228.117 147.859 229.938V229.945C147.859 231.758 148.844 232.953 150.211 232.953ZM157.836 234.156C156.219 234.156 155.133 233.18 155.133 231.703V231.688C155.133 230.305 156.211 229.438 158.078 229.328L160.406 229.195V228.516C160.406 227.523 159.758 226.922 158.625 226.922C157.578 226.922 156.922 227.422 156.766 228.148L156.75 228.219H155.438L155.445 228.133C155.562 226.797 156.727 225.719 158.641 225.719C160.562 225.719 161.766 226.758 161.766 228.383V234H160.406V232.68H160.375C159.898 233.57 158.922 234.156 157.836 234.156ZM156.523 231.703C156.523 232.484 157.164 232.977 158.141 232.977C159.422 232.977 160.406 232.094 160.406 230.914V230.25L158.234 230.383C157.148 230.445 156.523 230.93 156.523 231.688V231.703ZM164.102 236.227H162.836V232.875H163.516C164.109 232.484 164.398 231.477 164.477 230.383L164.789 225.875H170.383V232.875H171.672V236.227H170.406V234H164.102V236.227ZM169.023 232.875V227H165.984L165.734 230.414C165.664 231.438 165.453 232.32 165.047 232.844V232.875H169.023ZM172.891 234V225.875H174.25V228.469H175.773C177.633 228.469 178.828 229.539 178.828 231.227V231.242C178.828 232.93 177.633 234 175.773 234H172.891ZM179.859 234V225.875H181.219V234H179.859ZM175.75 229.594H174.25V232.875H175.75C176.789 232.875 177.438 232.227 177.438 231.242V231.227C177.438 230.234 176.781 229.594 175.75 229.594Z" fill="white"/>
</svg>
