<svg width="63" height="63" viewBox="0 0 63 63" fill="none" xmlns="http://www.w3.org/2000/svg">
<path d="M4.20156 58.7985L58.7985 4.20156L54.5969 0L40.1728 14.4242C27.2985 27.2985 32.4299 29.0479 19.838 41.6377L3.43938 58.0363L2.81307 57.41L19.2117 41.0114C26.1393 33.3259 33.1985 24.7954 20.6533 12.2501C14.9422 6.53906 8.40312 0 8.40312 0L0 8.40312L13.4539 21.857C20.494 28.8971 22.2477 32.3514 14.1482 40.4509L0 54.5969L4.20156 58.7985Z" fill="#E1FF01"/>
<path d="M4.20151 58.7984L58.7985 4.2015L63 8.40306L48.5759 22.8272C35.7015 35.7015 33.9521 30.5701 21.3623 43.162L4.96369 59.5606L5.59 60.1869L21.9886 43.7883C29.6741 36.8607 38.2046 29.8015 50.7499 42.3468C56.4609 48.0578 63 54.5969 63 54.5969L54.5969 63C54.5969 63 46.7458 55.1489 41.143 49.5461C34.1029 42.506 30.6486 40.7523 22.5491 48.8518L8.40307 62.9979L4.20151 58.7963V58.7984Z" fill="#E1FF01"/>
<path d="M4.20156 58.7985L58.7985 4.20156L54.5969 0L40.1728 14.4242C27.2985 27.2985 32.4299 29.0479 19.838 41.6377L3.43938 58.0363L2.81307 57.41L19.2117 41.0114C26.1393 33.3259 33.1985 24.7954 20.6533 12.2501C14.9422 6.53906 8.40312 0 8.40312 0L0 8.40312L13.4539 21.857C20.494 28.8971 22.2477 32.3514 14.1482 40.4509L0 54.5969L4.20156 58.7985Z" fill="#E1FF01"/>
</svg>
