<svg width="200" height="102" viewBox="0 0 200 102" fill="none" xmlns="http://www.w3.org/2000/svg">
<path d="M29.0511 34.0759L17.4036 32.2876C15.9378 32.0625 14.567 33.0684 14.3419 34.5343L11.7121 51.6627C11.5836 52.4999 11.0676 53.2273 10.32 53.6254L4.59541 56.6737C3.84783 57.0718 3.33186 57.7992 3.20333 58.6364L1.40706 70.3358C1.182 71.8017 2.18787 73.1725 3.65373 73.3975L185.465 101.312C186.931 101.537 188.302 100.531 188.527 99.0652L190.451 86.5348C190.559 85.8291 190.382 85.1093 189.958 84.5345L185.126 77.9759C184.703 77.4011 184.526 76.6813 184.634 75.9756L188.278 52.2418C188.386 51.5361 188.209 50.8163 187.786 50.2415L183.466 44.3792C183.043 43.8043 182.866 43.0845 182.974 42.3788L183.359 39.8713C183.564 38.5335 182.646 37.2825 181.309 37.0771C179.971 36.8717 178.72 37.7897 178.514 39.1275L177.73 44.2373C177.55 45.4078 176.456 46.2111 175.285 46.0313C174.114 45.8516 173.311 44.757 173.491 43.5865L174.949 34.0905C175.217 32.3434 173.753 30.8182 171.997 31.0143L147.254 33.7763C146.048 33.9109 145.082 34.8378 144.898 36.0375L143.302 46.4308C143.077 47.8967 141.706 48.9026 140.24 48.6775L90.442 41.0318C88.9761 40.8067 87.9703 39.4359 88.1953 37.9701L91.66 15.4039C91.9117 13.7645 90.6317 12.2911 88.9731 12.3113L60.8827 12.6534C59.5695 12.6694 58.4605 13.6329 58.2612 14.9309L53.6425 45.0139C53.4174 46.4797 52.0466 47.4856 50.5808 47.2605L41.9611 45.9371C40.4952 45.7121 39.4894 44.3413 39.7144 42.8754L42.5114 24.6581C42.7365 23.1922 41.7306 21.8215 40.2648 21.5964L36.4896 21.0168C35.0238 20.7917 33.653 21.7976 33.4279 23.2635L32.1128 31.8292C31.8877 33.2951 30.517 34.301 29.0511 34.0759Z" fill="black" stroke="white" stroke-opacity="0.5" stroke-dasharray="2 2"/>
<path opacity="0.5" d="M25.3191 68.4073C21.7226 67.8551 19.8193 65.0198 20.4341 61.015L20.4355 61.0063C21.0504 57.0015 23.7139 54.8851 27.3104 55.4372C30.1946 55.8801 32.0469 58.0051 31.9762 60.6085L31.9802 60.6981L29.7737 60.3593L29.7556 60.1875C29.6108 58.6981 28.6536 57.6353 27.0117 57.3832C24.8225 57.0471 23.1557 58.5785 22.7289 61.3584L22.7276 61.3671C22.2994 64.1557 23.4373 66.1266 25.6178 66.4614C27.225 66.7081 28.469 66.0188 29.1234 64.5365L29.1541 64.4523L31.352 64.7898L31.33 64.8753C30.6051 67.396 28.2033 68.8502 25.3191 68.4073ZM34.9821 69.6686L32.7408 69.3245L34.6654 56.7888L36.9068 57.1329L36.0931 62.4322L36.5623 62.5042L41.9019 57.8999L44.4994 58.2987L38.346 63.4538L43.0439 70.9064L40.2118 70.4716L36.2968 64.2329L35.8277 64.1609L34.9821 69.6686ZM49.5475 72.1272C45.8902 71.5657 43.9795 68.7203 44.5918 64.7329L44.5944 64.7155C45.2053 60.7368 47.8902 58.597 51.5389 59.1572C55.1962 59.7187 57.1069 62.5641 56.496 66.5428L56.4933 66.5602C55.8811 70.5477 53.2135 72.6901 49.5475 72.1272ZM49.8463 70.1813C52.1137 70.5294 53.7844 68.972 54.2086 66.2094L54.2112 66.192C54.638 63.4121 53.4814 61.4472 51.2401 61.1031C49.0075 60.7603 47.3073 62.2777 46.8792 65.0663L46.8765 65.0837C46.4484 67.8723 47.605 69.8372 49.8463 70.1813ZM57.6381 73.1471L59.5628 60.6114L64.3842 61.3517C66.9296 61.7425 68.3923 63.6832 68.0068 66.1938L68.0041 66.2112C67.62 68.7131 65.6412 70.1344 63.0958 69.7436L60.507 69.3461L59.8708 73.4899L57.6381 73.1471ZM63.5555 63.1007L61.514 62.7872L60.7844 67.5391L62.8259 67.8526C64.4331 68.0993 65.5047 67.3747 65.7354 65.8718L65.7381 65.8544C65.9688 64.3515 65.1626 63.3474 63.5555 63.1007ZM74.1756 75.9085C70.5182 75.347 68.6076 72.5016 69.2198 68.5142L69.2225 68.4968C69.8334 64.518 72.5183 62.3782 76.1669 62.9384C79.8243 63.4999 81.7349 66.3453 81.124 70.3241L81.1214 70.3415C80.5092 74.3289 77.8416 76.4714 74.1756 75.9085ZM74.4743 73.9626C76.7417 74.3107 78.4125 72.7532 78.8366 69.9907L78.8393 69.9733C79.2661 67.1934 78.1095 65.2285 75.8682 64.8844C73.6355 64.5416 71.9354 66.059 71.5072 68.8476L71.5046 68.8649C71.0764 71.6536 72.233 73.6184 74.4743 73.9626ZM86.7203 80.1465L84.6788 79.8331L85.3484 75.4721L86.2432 75.6094C87.216 75.1808 87.6601 74.1997 88.0144 72.5291L89.5985 65.2229L98.0773 66.5247L96.442 77.1753L98.0058 77.4154L97.3362 81.7764L95.3034 81.4643L95.6835 78.9884L87.1005 77.6706L86.7203 80.1465ZM90.0693 72.9868C89.7563 74.3882 89.4345 75.3258 88.7471 75.9227L88.7364 75.9922L94.2094 76.8325L95.5552 68.0671L91.2898 67.4122L90.0693 72.9868ZM104.976 80.6374C101.318 80.0759 99.4078 77.2305 100.02 73.2431L100.023 73.2257C100.634 69.2469 103.318 67.1071 106.967 67.6673C110.624 68.2288 112.535 71.0742 111.924 75.053L111.922 75.0704C111.309 79.0578 108.642 81.2003 104.976 80.6374ZM105.275 78.6915C107.542 79.0396 109.213 77.4821 109.637 74.7196L109.639 74.7022C110.066 71.9223 108.91 69.9574 106.668 69.6133C104.436 69.2705 102.736 70.7879 102.307 73.5765L102.305 73.5938C101.877 76.3825 103.033 78.3473 105.275 78.6915ZM113.075 81.6586L115 69.1229L122.966 70.346L122.677 72.2311L116.952 71.3522L116.502 74.2798L119.126 74.6826C121.654 75.0707 123.178 76.8965 122.829 79.1726L122.826 79.1899C122.472 81.5007 120.503 82.799 118.009 82.4162L113.075 81.6586ZM115.599 80.1611L117.728 80.4878C119.309 80.7306 120.34 80.1509 120.542 78.8391L120.544 78.8218C120.747 77.5013 119.937 76.6389 118.347 76.3948L116.227 76.0693L115.599 80.1611ZM123.209 83.2145L129.616 71.367L132.144 71.7551L134.693 84.9778L132.339 84.6163L131.777 81.2132L127.12 80.4983L125.563 83.5759L123.209 83.2145ZM130.515 73.7904L127.95 78.8562L131.477 79.3978L130.559 73.797L130.515 73.7904ZM136.357 85.2332L138.281 72.6974L143.476 73.495C145.761 73.8458 147.048 75.3062 146.756 77.2087L146.754 77.2261C146.547 78.5726 145.336 79.6227 143.962 79.5984L143.955 79.6419C145.703 80.0703 146.713 81.488 146.459 83.1386L146.457 83.1559C146.121 85.3451 144.279 86.4496 141.604 86.0388L136.357 85.2332ZM142.652 75.1558L140.246 74.7864L139.7 78.3394L141.724 78.6502C143.332 78.897 144.31 78.3715 144.492 77.19L144.494 77.1726C144.661 76.0867 143.981 75.3599 142.652 75.1558ZM141.831 80.3294L139.451 79.964L138.857 83.8298L141.359 84.2139C143.001 84.466 143.99 83.9332 144.183 82.6735L144.186 82.6561C144.379 81.3965 143.577 80.5975 141.831 80.3294ZM147.854 86.9984L149.779 74.4627L152.011 74.8055L150.651 83.6665L150.677 83.6705L158.171 75.7511L160.177 76.0592L158.253 88.595L156.029 88.2535L157.391 79.3838L157.356 79.3785L149.861 87.3065L147.854 86.9984ZM160.811 88.9877L162.736 76.452L165.316 76.8482L167.694 87.0124L167.746 87.0204L173.065 78.0379L175.645 78.434L173.72 90.9698L171.705 90.6603L173.073 81.7472L173.004 81.7365L168.03 90.0961L166.501 89.8614L164.264 80.3947L164.195 80.384L162.826 89.2972L160.811 88.9877Z" fill="#F9F9FB"/>
</svg>
